<?xml version="1.0" encoding="utf-8"?>
<svg version="1.0" xmlns="http://www.w3.org/2000/svg" width="24" height="24" viewBox="0 0 571.000000 558.000000" fill="#7c7979" preserveAspectRatio="xMidYMid meet">
  <g transform="translate(0.000000,558.000000) scale(0.100000,-0.100000)" stroke="none">
    <path d="M2829 5560 c-21 -4 -156 -72 -300 -152 -1453 -801 -2339 -1295 -2363 -1317 -60 -55 -81 -144 -51 -218 15 -37 36 -50 668 -393 358 -194 973 -528 1365 -742 l713 -388 1092 593 c601 327 1215 661 1366 742 310 168 307 166 299 277 -8 109 -14 114 -433 345 -203 113 -795 440 -1315 728 -520 287 -958 524 -975 526 -16 3 -46 2 -66 -1z m621 -855 c0 -30 0 -58 1 -62 0 -5 -34 -14 -76 -22 l-76 -15 7 -628 7 -628 -89 0 -89 0 -345 541 -345 542 -3 -459 c-1 -253 0 -464 2 -470 2 -6 31 -15 63 -18 108 -13 103 -10 103 -82 l0 -64 -250 0 -251 0 3 63 3 62 79 15 79 14 -6 210 c-4 115 -7 363 -7 552 l0 343 -74 11 -74 12 -6 46 c-12 90 -28 82 172 82 l177 -1 305 -490 c168 -270 320 -514 337 -542 l33 -52 -3 470 -2 470 -50 7 c-27 5 -65 10 -82 13 l-33 6 0 64 0 65 245 0 245 0 0 -55z m648 -7 c-3 -54 -6 -63 -23 -66 -11 -2 -44 -8 -72 -13 l-53 -10 0 -457 c0 -251 3 -500 6 -553 l7 -97 51 -6 c100 -13 96 -10 96 -82 l0 -64 -250 0 -250 0 0 64 0 63 75 13 75 13 0 552 0 553 -77 13 -78 14 -3 63 -3 62 251 0 251 0 -3 -62z m-2140 -10 l-3 -63 -79 -15 -79 -14 6 -195 c4 -107 7 -355 7 -552 l0 -358 75 -12 c60 -9 75 -15 75 -29 0 -9 3 -38 6 -64 l7 -46 -252 0 -252 0 3 62 c3 54 6 63 23 66 11 2 44 8 73 13 l52 10 0 268 c0 147 -3 396 -7 553 l-6 286 -51 6 c-100 13 -96 10 -96 82 l0 64 250 0 251 0 -3 -62z" />
    <path d="M390 3011 c-107 -59 -211 -123 -231 -143 -58 -56 -74 -150 -37 -224 10 -21 77 -62 278 -171 485 -264 1901 -1034 2178 -1185 151 -81 278 -148 283 -148 6 0 63 29 127 64 167 90 1765 959 2215 1204 235 127 385 214 394 229 40 61 22 181 -35 236 -22 21 -381 226 -427 243 -10 4 -751 -394 -1970 -1059 -201 -109 -248 -131 -291 -135 -60 -5 -53 -8 -402 182 -980 534 -1872 1016 -1879 1015 -4 0 -96 -49 -203 -108z" />
    <path d="M410 1924 c-124 -68 -218 -126 -237 -148 -73 -79 -66 -202 14 -278 16 -16 486 -280 1044 -589 557 -308 1139 -630 1292 -715 154 -84 297 -159 319 -164 57 -16 88 -6 223 67 800 437 2496 1381 2517 1401 66 61 77 187 22 264 -24 35 -63 60 -244 159 l-214 118 -31 -18 c-16 -10 -120 -67 -230 -126 -110 -59 -555 -301 -990 -538 -1019 -554 -956 -522 -1013 -521 -56 1 -55 0 -567 279 -551 300 -1656 900 -1680 912 -17 8 -55 -9 -225 -103z" />
  </g>
</svg>