<?xml version="1.0" encoding="utf-8"?>
<svg xmlns="http://www.w3.org/2000/svg" xmlns:xlink="http://www.w3.org/1999/xlink" version="1.1" id="Capa_1" x="0px" y="0px" viewBox="0 0 377.847 377.847" style="enable-background:new 0 0 377.847 377.847;" xml:space="preserve" width="24px" height="24px" fill="#7c7979">
  <g>
    <g>
	<g>
		<rect x="241.761" y="322.847" width="14" height="55" data-original="#000000" class="active-path" />
	</g>
</g>
    <g>
	<g>
		<path d="M27.732,306.846h232.382l-58.195-72.74c-1.927-2.474-2.303-5.82-0.972-8.66v0c1.324-2.79,4.126-4.576,7.214-4.6h32.4    l-55.13-57.977c-2.196-2.24-2.807-5.592-1.543-8.463c1.296-2.872,4.201-4.675,7.35-4.56h33.3l-48.342-57.52    c-2.014-2.491-2.456-5.902-1.145-8.824c1.309-2.83,4.138-4.645,7.255-4.656h15.861L143.523,1.082    c-0.839-1.166-2.464-1.43-3.629-0.592c-0.23,0.165-0.431,0.367-0.596,0.598L84.654,78.847h16.332    c3.146,0.068,5.972,1.941,7.262,4.811c1.308,2.887,0.853,6.267-1.172,8.706l-48.704,57.483H93.7c3.144-0.126,6.05,1.665,7.35,4.53    c1.264,2.835,0.65,6.156-1.543,8.353l-55.128,58.117h37.1c3.122,0.058,5.934,1.898,7.238,4.735    c1.319,2.851,0.902,6.204-1.073,8.646L27.732,306.846z" data-original="#000000" class="active-path" />
	</g>
</g>
    <g>
	<g>
		<path d="M291.919,234.107c-1.927-2.474-2.303-5.82-0.972-8.66h0c1.324-2.79,4.126-4.576,7.214-4.6h32.4l-55.13-57.977    c-2.196-2.24-2.807-5.592-1.543-8.463c1.296-2.872,4.201-4.675,7.35-4.56h33.3l-48.342-57.52    c-2.014-2.491-2.456-5.902-1.145-8.824c1.309-2.83,4.138-4.645,7.255-4.656h15.861l-54.644-77.76    c-0.478-0.692-1.273-1.095-2.113-1.073c-0.844-0.01-1.636,0.403-2.112,1.1l-33.111,47.13L220.11,82.29    c2.533,3.6,1.669,8.571-1.931,11.105c-1.352,0.951-2.966,1.459-4.618,1.452h-14.025l48.343,57.393    c2.913,3.568,2.382,8.822-1.186,11.735c-1.396,1.14-3.124,1.797-4.925,1.872h-31.929l55.128,57.867    c2.193,2.197,2.807,5.518,1.543,8.353c-1.27,2.922-4.163,4.804-7.349,4.78h-34.329l55.793,70h69.489L291.919,234.107z" data-original="#000000" class="active-path" />
	</g>
</g>
    <g>
	<g>
		<rect x="141.761" y="322.847" width="14" height="55" data-original="#000000" class="active-path" />
	</g>
</g>
  </g> </svg>