<?xml version="1.0" encoding="utf-8"?>
<svg xmlns="http://www.w3.org/2000/svg" height="24px" viewBox="0 0 448 448" width="24px" fill="#7c7979">
  <g>
    <path d="m192 351.199219h64v16h-64zm0 0" data-original="#000000" class="active-path" />
    <path d="m32 351.199219h64v16h-64zm0 0" data-original="#000000" class="active-path" />
    <path d="m16 143.199219h416v16h-416zm0 0" data-original="#000000" class="active-path" />
    <path d="m296.648438 383.199219h-280.648438v16h299.046875c-6.785156-4.53125-12.96875-9.90625-18.398437-16zm0 0" data-original="#000000" class="active-path" />
    <path d="m48 207.199219h32v128h-32zm0 0" data-original="#000000" class="active-path" />
    <path d="m208 207.199219h32v128h-32zm0 0" data-original="#000000" class="active-path" />
    <path d="m32 175.199219h64v16h-64zm0 0" data-original="#000000" class="active-path" />
    <path d="m400 228.800781v-21.601562h-32v16c10.910156.023437 21.730469 1.917969 32 5.601562zm0 0" data-original="#000000" class="active-path" />
    <path d="m352 175.199219h64v16h-64zm0 0" data-original="#000000" class="active-path" />
    <path d="m248 71.199219c0 13.253906-10.746094 24-24 24s-24-10.746094-24-24c0-13.253907 10.746094-24 24-24s24 10.746093 24 24zm0 0" data-original="#000000" class="active-path" />
    <path d="m192 175.199219h64v16h-64zm0 0" data-original="#000000" class="active-path" />
    <path d="m368 263.199219c-30.929688 0-56 25.074219-56 56 0 30.929687 25.070312 56 56 56s56-25.070313 56-56c-.039062-30.910157-25.089844-55.960938-56-56zm32 72c0 13.253906-10.746094 24-24 24v8h-16v-8c-13.253906 0-24-10.746094-24-24h16c0 4.417969 3.582031 8 8 8v-16c-13.253906 0-24-10.746094-24-24 0-13.253907 10.746094-24 24-24v-8h16v8c13.253906 0 24 10.746093 24 24h-16c0-4.417969-3.582031-8-8-8v16c13.253906 0 24 10.746093 24 24zm0 0" data-original="#000000" class="active-path" />
    <path d="m368 239.199219c-44.183594 0-80 35.816406-80 80 0 44.183593 35.816406 80 80 80s80-35.816407 80-80c-.046875-44.160157-35.835938-79.949219-80-80zm0 152c-39.765625 0-72-32.234375-72-72s32.234375-72 72-72 72 32.234375 72 72c-.042969 39.746093-32.253906 71.957031-72 72zm0 0" data-original="#000000" class="active-path" />
    <path d="m352 303.199219c0 4.417969 3.582031 8 8 8v-16c-4.417969 0-8 3.582031-8 8zm0 0" data-original="#000000" class="active-path" />
    <path d="m376 343.199219c4.417969 0 8-3.582031 8-8s-3.582031-8-8-8zm0 0" data-original="#000000" class="active-path" />
    <path d="m0 100.375v26.824219h448v-26.824219l-224-100.375zm264-29.175781c0 22.09375-17.910156 40-40 40s-40-17.90625-40-40c0-22.089844 17.910156-40 40-40 22.082031.027343 39.972656 17.921875 40 40zm0 0" data-original="#000000" class="active-path" />
    <path d="m8 447.199219h432c4.417969 0 8-3.582031 8-8v-24h-448v24c0 4.417969 3.582031 8 8 8zm0 0" data-original="#000000" class="active-path" />
    <path d="m420.953125 399.199219h11.046875v-8.648438c-3.46875 3.148438-7.160156 6.039063-11.046875 8.648438zm0 0" data-original="#000000" class="active-path" />
  </g>
</svg>