<?xml version="1.0" encoding="utf-8"?>
<svg xmlns="http://www.w3.org/2000/svg" height="32px" viewBox="0 0 512 512.00914" width="32px" fill="#7c7979">
  <g>
    <path d="m475.433594 325.359375 36.570312-36.574219v-102.144531l-36.570312 36.574219zm0 0" data-original="#000000" class="active-path" />
    <path d="m289.449219 227.859375c-1.371094-.46875-2.640625-1.246094-3.75-2.535156-3.546875-4.105469-2.265625-12.25-2.265625-17.535157 0-6.609374 0-13.210937 0-19.820312 0-8.605469 0-17.199219 0-25.800781 0-9.527344 0-19.0625 0-28.589844 0-9.398437 0-18.796875 0-28.199219 0-8.207031 0-16.410156 0-24.621094 0-5.949218 0-11.902343 0-17.855468 0-2.632813 0-5.273438 0-8.035156h-109.714844v164.570312c0 5.046875-4.097656 9.144531-9.144531 9.144531h-164.57031275v109.710938h164.57031275c5.046875 0 9.144531 4.097656 9.144531 9.144531v164.570312h109.714844v-164.570312c0-5.046875 4.09375-9.144531 9.140625-9.144531h164.574219v-109.710938c-1.976563 0-3.949219 0-5.925782 0-5.273437 0-10.542968 0-15.816406 0-7.597656 0-15.195312 0-22.792969 0-8.953125 0-17.894531 0-26.84375 0-9.324219 0-18.652343 0-27.976562 0-8.730469 0-17.464844 0-26.195313 0-7.167968 0-14.328125 0-21.496094 0-4.625 0-9.25 0-13.878906 0-2.347656-.011719-4.679687-.011719-6.773437-.722656zm0 0" data-original="#000000" class="active-path" />
    <path d="m301.71875 499.070312 36.570312-36.570312v-105.929688h-36.570312zm0 0" data-original="#000000" class="active-path" />
    <path d="m351.21875 173.714844-36.570312 36.570312h147.855468l36.574219-36.570312zm0 0" data-original="#000000" class="active-path" />
    <path d="m301.71875 197.359375 36.570312-36.574219v-147.855468l-36.570312 36.570312zm0 0" data-original="#000000" class="active-path" />
    <path d="m155.433594 210.285156v-36.570312h-97.1875l-42.671875 36.570312zm0 0" data-original="#000000" class="active-path" />
    <path d="m288.789062 36.570312 36.574219-36.570312h-93.40625l-42.667969 36.570312zm0 0" data-original="#000000" class="active-path" />
  </g>
</svg>