<?xml version="1.0" encoding="utf-8"?>
<svg version="1.0" xmlns="http://www.w3.org/2000/svg" width="24" height="24" viewBox="0 0 558.000000 563.000000" fill="#7c7979" preserveAspectRatio="xMidYMid meet">
  <g transform="translate(0.000000,563.000000) scale(0.100000,-0.100000)" stroke="none">
    <path d="M2744 5582 c-34 -3 -39 -6 -1594 -866 -575 -318 -1058 -590 -1074 -605 -60 -55 -81 -144 -51 -219 12 -29 28 -45 73 -69 31 -17 646 -351 1365 -742 l1308 -711 932 507 c513 278 1127 612 1366 741 489 266 467 249 459 364 -8 109 -14 114 -433 345 -1860 1029 -2264 1251 -2290 1254 -16 2 -44 3 -61 1z m-1261 -961 c84 -22 119 -37 189 -84 l48 -32 0 -137 0 -138 -74 0 -74 0 -7 100 -7 100 -57 27 c-52 26 -65 28 -176 28 -106 0 -125 -3 -168 -24 -102 -51 -184 -167 -213 -300 -7 -36 -14 -118 -14 -182 0 -294 114 -464 335 -499 108 -17 277 17 289 58 2 10 8 50 11 90 l7 72 69 0 69 0 0 -141 0 -140 -52 -24 c-87 -40 -167 -57 -293 -62 -90 -4 -137 -1 -189 11 -210 49 -352 200 -407 432 -29 121 -24 351 11 459 64 202 206 346 386 389 87 21 227 20 317 -3z m1316 -568 c119 -315 220 -575 224 -579 4 -4 26 -10 50 -13 l42 -6 3 -57 3 -58 -191 0 -190 0 0 55 c0 59 0 59 61 69 l36 6 -41 118 -41 117 -256 3 -256 2 -38 -107 c-21 -60 -40 -113 -42 -120 -3 -7 12 -15 39 -20 l43 -9 3 -57 3 -57 -186 0 -186 0 3 58 c3 52 5 57 28 60 68 7 53 -23 290 592 l224 581 79 -3 79 -3 217 -572z m1086 81 c170 -273 313 -498 317 -501 5 -2 7 186 6 419 l-3 423 -77 14 -78 13 0 64 0 64 230 0 230 0 0 -64 0 -64 -70 -13 -70 -12 0 -569 0 -568 -82 0 -83 0 -235 363 c-129 199 -274 423 -322 497 l-88 135 2 -430 3 -430 75 -12 c41 -6 76 -12 78 -12 1 -1 2 -26 2 -56 l0 -55 -235 0 -235 0 0 55 c0 60 -6 55 90 72 l45 9 3 501 2 501 -70 12 -70 12 0 64 0 64 163 0 162 0 310 -496z" />
    <path d="M2398 4128 c-53 -144 -96 -264 -94 -265 2 -2 91 -2 198 -1 l194 3 -95 263 c-52 144 -98 262 -101 262 -3 0 -49 -118 -102 -262z" />
    <path d="M300 3031 c-107 -59 -211 -123 -231 -143 -58 -56 -74 -150 -37 -224 10 -22 233 -147 1109 -623 1540 -838 1610 -876 1625 -879 7 -2 66 26 131 61 166 90 1761 957 2216 1205 235 127 385 214 394 229 40 61 22 181 -35 236 -22 21 -381 226 -427 243 -10 4 -766 -402 -1970 -1059 -200 -109 -249 -131 -291 -135 -60 -5 -48 -11 -403 183 -136 73 -611 331 -1058 574 -446 243 -815 441 -820 440 -4 0 -96 -49 -203 -108z" />
    <path d="M320 1944 c-124 -68 -218 -126 -237 -148 -73 -79 -66 -202 14 -278 16 -16 486 -280 1044 -589 557 -308 1139 -630 1292 -715 154 -84 297 -159 319 -164 57 -16 88 -6 223 67 800 437 2496 1381 2517 1401 66 61 77 187 22 264 -24 35 -63 60 -244 159 l-214 118 -31 -18 c-16 -10 -120 -67 -230 -126 -110 -59 -584 -317 -1054 -572 -469 -256 -872 -471 -895 -479 -76 -28 -58 -36 -621 271 -551 300 -1656 900 -1680 912 -17 8 -55 -9 -225 -103z" />
  </g>
</svg>