<?xml version="1.0" encoding="utf-8"?>
<svg xmlns="http://www.w3.org/2000/svg" height="24px" viewBox="0 0 402 402.30013" width="24px" class="" fill="#7c7979">
  <g>
    <path d="m162.351562 176.5c7.894532 0 14.296876-6.402344 14.296876-14.300781 0-7.898438-6.402344-14.300781-14.296876-14.300781-7.898437 0-14.300781 6.402343-14.300781 14.300781 0 7.898437 6.402344 14.300781 14.300781 14.300781zm0 0" data-original="#000000" class="active-path" />
    <path d="m240.148438 225.699219c-7.894532 0-14.296876 6.402343-14.296876 14.300781s6.402344 14.300781 14.296876 14.300781c7.898437 0 14.300781-6.402343 14.300781-14.300781s-6.402344-14.300781-14.300781-14.300781zm0 0" data-original="#000000" class="active-path" />
    <path d="m399.050781 190.101562-16.199219-24.601562c-4.710937-7.160156-6.992187-15.644531-6.5-24.199219l1.597657-29.699219c.394531-7.949218-3.910157-15.386718-11-19l-26.300781-13.300781c-7.644532-3.847656-13.851563-10.054687-17.699219-17.699219l-13.300781-26.300781c-3.59375-7.105469-11.046876-11.421875-19-11l-29.597657 1.800781c-8.550781.441407-17.023437-1.835937-24.199219-6.5l-24.601562-16.300781c-6.671875-4.402343-15.328125-4.402343-22 0l-24.601562 16.199219c-7.15625 4.710938-15.644532 6.988281-24.199219 6.5l-29.699219-1.601562c-7.945312-.390626-15.382812 3.914062-19 11l-13.300781 26.300781c-3.847657 7.648437-10.050781 13.855469-17.699219 17.699219l-26.300781 13.300781c-7.105469 3.597656-11.417969 11.046875-11 19l1.601562 29.699219c.441407 8.550781-1.835937 17.023437-6.5 24.203124l-16.101562 24.5c-4.398438 6.671876-4.398438 15.324219 0 22l16.199219 24.597657c4.710937 7.160156 6.992187 15.644531 6.5 24.199219l-1.597657 29.703124c-.394531 7.945313 3.910157 15.382813 11 19l26.300781 13.296876c7.644532 3.847656 13.851563 10.054687 17.699219 17.703124l13.300781 26.296876c3.59375 7.105468 11.046876 11.421874 19 11l29.699219-1.597657c.699219 0 1.398438-.101562 2.199219-.101562 7.851562 0 15.535156 2.296875 22.101562 6.601562l24.597657 16.199219c6.675781 4.398438 15.328125 4.398438 22 0l24.601562-16.199219c7.15625-4.710937 15.644531-6.992187 24.199219-6.5l29.699219 1.597657c7.949219.394531 15.386719-3.910157 19-11l13.300781-26.296876c3.847656-7.648437 10.054688-13.855468 17.699219-17.703124l26.300781-13.296876c7.105469-3.597656 11.417969-11.046874 11-19l-1.601562-29.703124c-.441407-8.550782 1.835937-17.019532 6.5-24.199219l16.203124-24.597657c4.15625-6.777343 4.039063-15.339843-.300781-22zm-236.699219-62.300781c18.941407 0 34.296876 15.355469 34.296876 34.300781 0 18.941407-15.355469 34.296876-34.296876 34.296876-18.945312 0-34.300781-15.355469-34.300781-34.296876.03125-18.933593 15.367188-34.269531 34.300781-34.300781zm-7.902343 134.300781c-1.875 1.886719-4.4375 2.933594-7.097657 2.898438-2.65625-.011719-5.199218-1.050781-7.101562-2.898438-1.871094-1.871093-2.925781-4.40625-2.925781-7.050781s1.054687-5.183593 2.925781-7.050781l111-111c3.894531-3.894531 10.207031-3.894531 14.101562 0 3.890626 3.894531 3.890626 10.207031 0 14.101562zm85.699219 12.296876c-18.941407 0-34.296876-15.355469-34.296876-34.296876 0-18.945312 15.355469-34.300781 34.296876-34.300781 18.945312 0 34.300781 15.355469 34.300781 34.300781-.03125 18.929688-15.367188 34.269532-34.300781 34.296876zm0 0" data-original="#000000" class="active-path" />
  </g>
</svg>