<?xml version="1.0" encoding="utf-8"?>
<svg xmlns="http://www.w3.org/2000/svg" xmlns:xlink="http://www.w3.org/1999/xlink" version="1.1" id="Capa_1" x="0px" y="0px" viewBox="0 0 440.32 440.32" style="enable-background:new 0 0 440.32 440.32;" xml:space="preserve" width="24px" height="24px" fill="#7c7979">
  <g>
    <g>
	<g>
		<path d="M365.824,76.8C333.568,27.648,280.32,0,220.416,0c-59.392,0-112.64,27.648-145.92,76.8    c-33.28,48.128-40.96,109.568-20.48,163.328c5.632,14.336,14.336,29.184,25.6,42.496L209.152,435.2    c3.072,3.072,6.144,5.12,10.752,5.12s7.68-2.048,10.752-5.12l130.048-152.576c11.264-13.312,20.48-27.648,25.6-42.496    C406.784,186.368,399.104,124.928,365.824,76.8z M220.416,258.048c-44.032,0-80.384-36.352-80.384-80.384    c0-44.032,36.352-80.384,80.384-80.384c44.032,0,80.384,36.352,80.384,80.384C300.8,221.696,264.96,258.048,220.416,258.048z" data-original="#000000" class="active-path" />
	</g>
</g>
  </g> </svg>