<?xml version="1.0" encoding="utf-8"?>
<svg id="Layer_1_1_" enable-background="new 0 0 64 64" height="24" viewBox="0 0 64 64" width="24" xmlns="http://www.w3.org/2000/svg" fill="#7c7979">
  <path d="m44.5 27h-2.5c-.553 0-1-.447-1-1v-4.057l-11.279 8.057 11.279 8.057v-4.057c0-.553.447-1 1-1h.5c7.444 0 13.5 6.056 13.5 13.5 0 3.719-1.511 7.091-3.952 9.535 4.741-2.654 7.952-7.726 7.952-13.535 0-8.547-6.953-15.5-15.5-15.5z" />
  <path d="m50 37.79c-1.897-1.636-4.332-2.664-7-2.779v4.989c0 .375-.209.718-.542.89-.335.169-.735.142-1.039-.076l-14-10c-.263-.188-.419-.491-.419-.814s.156-.626.419-.813l14-10c.304-.219.704-.248 1.039-.076.333.171.542.514.542.889v5h1.5c1.923 0 3.768.323 5.5.899v-10.899h-19v7c0 .553-.447 1-1 1h-6c-.553 0-1-.447-1-1v-7h-19v36h46zm-32 11.21h-12v-2h12zm0-4h-12v-2h12z" />
  <path d="m25 14.414v6.586h4v-6.586l6.586-7.414h-3.172z" />
  <path d="m11.414 7-6 6h18.172l6-6z" />
  <path d="m32.414 13h18.172l6-6h-18.172z" />
  <path d="m58 28.5v-20.086l-6 6v11.086z" />
</svg>