<?xml version="1.0" encoding="utf-8"?>
<svg version="1.1" id="Capa_1" xmlns="http://www.w3.org/2000/svg" xmlns:xlink="http://www.w3.org/1999/xlink" x="0px" y="0px" width="24" height="24" fill="#7c7979" viewBox="0 0 512 512" style="enable-background:new 0 0 512 512;" xml:space="preserve">
<g>
	<g>
		<path d="M329.938,381c-6.441-19.173-9.938-39.685-9.938-61c0,0,0-58.288,0-64c0-32.194-2.949-63.322-8.306-87.648    c-5.435-24.688-11.649-34.763-14.294-37.352h-22.426C284.79,169.328,290,211.981,290,256s-5.21,86.672-15.026,125H329.938z" />
	</g>
</g>
<g>
	<g>
		<path d="M224.855,79.127C200.506,28.101,166.82,0,130,0S59.494,28.101,35.145,79.127C12.481,126.623,0,189.437,0,256    s12.481,129.377,35.145,176.873C59.494,483.899,93.18,512,130,512s70.506-28.101,94.855-79.127    C247.519,385.377,260,322.563,260,256S247.519,126.623,224.855,79.127z M130,351c-30.918,0-45-49.245-45-95s14.082-95,45-95    c30.918,0,45,49.245,45,95S160.918,351,130,351z" />
	</g>
</g>
<g>
	<g>
		<path d="M130,191.641c-5.216,4.925-15,26.749-15,64.359s9.784,59.434,15,64.359c5.216-4.926,15-26.749,15-64.359    C145,218.39,135.216,196.566,130,191.641z" />
	</g>
</g>
<g>
	<g>
		<path d="M453.639,471.119c-7.125,9.119-14.695,16.797-22.628,22.937C455.634,505.559,483.077,512,512,512v-30    C491.434,482,471.756,478.139,453.639,471.119z" />
	</g>
</g>
<g>
	<g>
		<path d="M476.855,79.127C452.507,28.101,418.819,0,382,0c-36.819,0-70.507,28.101-94.855,79.127    c-3.326,6.97-6.426,14.279-9.306,21.873h87.224c7.163,0,17.618,3.163,26.745,18.23c5.035,8.313,9.452,19.763,13.128,34.034    C412.07,180.968,416,217.454,416,256s-3.93,75.032-11.064,102.736c-3.676,14.271-8.093,25.721-13.128,34.034    c-5.04,8.32-10.484,13.006-15.556,15.538c18.455,28.272,45.491,50.451,77.387,62.811c8.413-10.769,16.204-23.551,23.216-38.246    C499.519,385.377,512,322.563,512,256S499.519,126.623,476.855,79.127z" />
	</g>
</g>
<g>
	<g>
		<path d="M342.973,411h-65.135c2.88,7.594,5.98,14.902,9.306,21.873C311.493,483.899,345.181,512,382,512    c17.236,0,33.785-6.159,49.011-17.944C393.518,476.54,362.578,447.268,342.973,411z" />
	</g>
</g>
<g>
	<g>
		<path d="M377.694,168.352c-5.431-24.67-11.643-34.754-14.291-37.352h-31.735c2.663,6.396,5.096,13.834,7.267,22.264    C346.07,180.968,350,217.454,350,256c0,5.722,0,64,0,64c0,21.569,4.248,42.162,11.933,61h1.47    c2.648-2.598,8.86-12.682,14.291-37.352C383.051,319.322,386,288.194,386,256C386,223.806,383.051,192.678,377.694,168.352z" />
	</g>
</g>
<g>
</g>
<g>
</g>
<g>
</g>
<g>
</g>
<g>
</g>
<g>
</g>
<g>
</g>
<g>
</g>
<g>
</g>
<g>
</g>
<g>
</g>
<g>
</g>
<g>
</g>
<g>
</g>
<g>
</g>
</svg>