<?xml version="1.0" encoding="utf-8"?>
<svg xmlns="http://www.w3.org/2000/svg" height="24px" viewBox="-15 0 409 409.5185" width="24px" class="" fill="#7c7979">
  <g>
    <path d="m109.058594 165.882812h103.1875c25-18 39.28125-45.066406 39.28125-74.871093.03125-43.246094-30.390625-80.53125-72.761719-89.175781-42.371094-8.644532-84.972656 13.742187-101.882813 53.542968-16.910156 39.800782-3.457031 86.003906 32.175782 110.503906zm51.199218-71.171874c-14.898437 0-27.621093-10.753907-30.097656-25.445313-2.472656-14.695313 6.023438-29.023437 20.097656-33.90625v-7.476563c0-4.417968 3.582032-8 8-8 4.417969 0 8 3.582032 8 8v6.382813c14.25 2.875 24.503907 15.386719 24.523438 29.925781 0 4.417969-3.582031 8-8 8s-8-3.582031-8-8c0-8.019531-6.5-14.523437-14.519531-14.523437-8.023438 0-14.523438 6.5-14.523438 14.519531s6.5 14.523438 14.519531 14.523438c15.6875 0 28.820313 11.894531 30.371094 27.503906 1.550782 15.613281-8.988281 29.855468-24.371094 32.941406v7.726562c0 4.417969-3.582031 8-8 8-4.417968 0-8-3.582031-8-8v-8.824218c-12.269531-4.269532-20.503906-15.832032-20.519531-28.828125 0-4.417969 3.582031-8 8-8s8 3.582031 8 8c0 8.019531 6.5 14.519531 14.519531 14.519531 8.019532 0 14.523438-6.5 14.523438-14.519531s-6.503906-14.519531-14.523438-14.519531zm0 0" data-original="#000000" class="active-path" />
    <path d="m356.871094 192.363281-14.710938-1.539062c-2.527344-.25-4.867187-1.441407-6.558594-3.335938l-.917968-.917969-.582032-1.164062c-10.097656-20.195312-25.046874-38.050781-44.433593-53.078125l-.402344-.304687-.355469-.355469c-1.902344-1.898438-2.933594-4.5-2.851562-7.183594l.046875-.863281 2.539062-23.347656c1.234375-11.121094 2.515625-23.183594 2.089844-25.738282l-.058594-.429687c-.007812-.089844-.023437-.179688-.054687-.261719-.523438-.1875-1.078125-.273438-1.636719-.253906l-.277344-.03125c-3.554687-.121094-10.167969.511718-22.039062 4.042968 4.15625 32.472657-6.898438 65.046876-29.957031 88.28125h3.628906c4.417968 0 8 3.582032 8 8 0 4.417969-3.582032 8-8 8h-159.507813c-4.417969 0-8-3.582031-8-8 0-4.417968 3.582031-8 8-8h3.390625c-9.910156-9.953124-17.710937-21.796874-22.941406-34.832031-16.613281 12.191407-30.699219 27.492188-41.484375 45.054688l-7.019531 13.367187c-7.179688 14.898438-11.519532 30.0625-12.519532 43.871094v6.851562c0 28.097657 9.730469 55.300782 27.816407 78.675782 2.589843 2.957031 3.035156 7.21875 1.117187 10.644531l-.34375.65625-.464844.554687c-14.648437 19.085938-13.8125 44.921876 1.992188 61.582032 9.847656 10.496094 23.574219 16.488281 37.964844 16.574218h1.910156c14.109375 0 27.285156-4.945312 37.105469-14.316406l12.632812-11.910156c1.890625-1.851562 4.453125-2.855469 7.101563-2.773438h.925781l.902344.328126c25.234375 5.980468 51.414062 6.851562 76.988281 2.558593l.679688.113281h.6875c2.613281-.203124 5.1875.710938 7.085937 2.519532l9.601563 8.847656c9.996093 9.273438 22.976562 14.664062 36.601562 15.203125 13.445312.660156 26.667969-3.625 37.167969-12.046875 16.789062-13.726562 21.941406-37.195312 12.441406-56.6875-1.34375-1.914062-1.683594-4.359375-.914063-6.566406v-2.140625l1.898438-2.289063c9.25-10.199218 16.964844-21.691406 22.898438-34.117187l.601562-1.234375.988281-.964844c1.707031-1.890625 4.0625-3.082031 6.597657-3.335938l14.628906-1.539062c12.109375-1.238281 21.332031-11.410156 21.386718-23.582031v-49c-.054687-12.171875-9.277343-22.34375-21.386718-23.585938zm0 0" data-original="#000000" class="active-path" />
  </g>
</svg>