<?xml version="1.0" encoding="utf-8"?>
<svg xmlns="http://www.w3.org/2000/svg" xmlns:xlink="http://www.w3.org/1999/xlink" version="1.1" id="Capa_1" x="0px" y="0px" viewBox="0 0 437.607 437.607" style="enable-background:new 0 0 437.607 437.607;" xml:space="preserve" width="32px" height="32px" fill="#7c7979">
  <g>
    <g>
	<g>
		<path d="M52.2,249.904H10.9c-6,0-10.9,4.9-10.9,10.9v152.2c0,6,4.9,10.9,10.9,10.9h41.3c6,0,10.9-4.9,10.9-10.9v-152.2    C63.1,254.804,58.2,249.904,52.2,249.904z" data-original="#000000" class="active-path" />
	</g>
</g>
    <g>
	<g>
		<path d="M433.7,262.704c-0.3-0.4-0.6-0.8-0.8-1.2c-6.1-6.7-16.4-7.6-23.6-2c-19.9,16.2-50,40.5-68,55    c-16.6,13.4-37.2,21.1-58.6,21.8l-51.1,1.7c-9.4,0.4-18.2-4.4-23-12.5l-5.7-9.8c-1.5-2.6-2.6-5.4-3.1-8.3    c-2.6-13.9,6.6-27.3,20.5-29.9l52.8-10c7.7-1.5,13.3-8.2,13.4-16c0.1-9.1-7.2-16.5-16.3-16.6c-0.3,0-0.7,0-0.8,0    c-0.4,0-0.9,0-1.3,0l-71.1-2.9c-24.7-0.9-46,4-71.1,16.1l-42.8,20.7v113.9l35.9-6.6c0.1-0.1,0.3-0.1,0.4-0.1    c13.8-2.1,23-2.9,38.1-2.3l107.4,5c33.7,1.5,66.7-9.7,92.6-31.2l74.3-61.6C438.7,280.004,439.6,269.604,433.7,262.704z" data-original="#000000" class="active-path" />
	</g>
</g>
    <g>
	<g>
		<path d="M271.8,159.904c-3.5-0.1-7-0.2-10.5-0.5c-2,4.8-4.5,9.4-7.5,13.7c5.8,0.7,11.9,1.2,18.3,1.4L271.8,159.904z" data-original="#000000" class="active-path" />
	</g>
</g>
    <g>
	<g>
		<path d="M278,91.004c-7.1,0-13.9-0.3-20.6-0.9c2.7,4.7,4.9,9.7,6.6,14.9c4.5,0.3,8.8,0.5,13.1,0.5c4.9-4.8,12.6-8.7,23.3-11.8    c11-3.1,24.7-5.1,38.7-5.8v-6.5C321.1,88.704,295.2,91.004,278,91.004z" data-original="#000000" class="active-path" />
	</g>
</g>
    <g>
	<g>
		<path d="M410.9,141.104c-3.1,1.2-6.2,2.3-9.4,3.2c-14.1,4.1-32.3,6.3-51.2,6.3c-19.7,0-42.6-2.6-58.7-9.1l0.2,12.1    c5.2,4.2,25.1,11.4,58.5,11.4c36.5,0,57.3-8.5,60.6-12.4c0-0.3,0-0.6,0.1-0.9L410.9,141.104z" data-original="#000000" class="active-path" />
	</g>
</g>
    <g>
	<g>
		<path d="M350.3,107.804h-0.7c-15.3,0-30.1,1.7-41.6,4.7c-9.3,2.4-14.1,5-16.2,6.6c5.2,4.2,25.1,11.4,58.5,11.4    c33.6,0,53.8-7.1,59.4-11.3C404.2,115.004,383.9,107.904,350.3,107.804z" data-original="#000000" class="active-path" />
	</g>
</g>
    <g>
	<g>
		<path d="M271.6,139.904l-0.2-14.5c-1.3,0-2.5,0-3.8-0.1c0,1.1,0.1,2.2,0.1,3.3c0,3.7-0.3,7.4-0.8,11.1    C268.5,139.804,270,139.804,271.6,139.904z" data-original="#000000" class="active-path" />
	</g>
</g>
    <g>
	<g>
		<path d="M411.2,175.404c-17.4,7.3-42.9,9.7-60.9,9.7c-19.3,0-42-2.5-58.2-8.9l0.2,11.3c3.2,3.9,23.5,12.2,59.3,12.2    c36,0,56.3-8.4,59.7-12.4L411.2,175.404z" data-original="#000000" class="active-path" />
	</g>
</g>
    <g>
	<g>
		<path d="M246.5,117.004v-0.1c-4.3-20.8-19.6-37.6-39.9-43.9c-5.6-1.7-11.4-2.6-17.2-2.6c-25.4,0-48,16.6-55.5,40.9    c-9.5,30.7,7.6,63.4,38.3,72.9s63.3-7.6,72.9-38.3c1.7-5.6,2.6-11.4,2.6-17.3C247.7,124.704,247.3,120.804,246.5,117.004z     M189.4,173.504c-24.7-0.1-44.8-20.1-44.8-44.8c0-24.7,20-44.8,44.8-44.8c24.7,0,44.8,20.1,44.8,44.8    C234.2,153.404,214.2,173.504,189.4,173.504z" data-original="#000000" class="active-path" />
	</g>
</g>
    <g>
	<g>
		<path d="M321.6,18.404c-12.3-3-27.8-4.7-43.4-4.7c-33.4,0-53.3,7.3-58.5,11.4c5.2,4.1,25.1,11.4,58.5,11.4    c30.6,0,53.7-6.2,61-11.4C336.7,23.404,331.3,20.804,321.6,18.404z" data-original="#000000" class="active-path" />
	</g>
</g>
    <g>
	<g>
		<path d="M189.4,103.804c-13.7,0-24.8,11.1-24.8,24.8s11.1,24.8,24.8,24.8s24.8-11.1,24.8-24.8S203.1,103.804,189.4,103.804z" data-original="#000000" class="active-path" />
	</g>
</g>
    <g>
	<g>
		<path d="M278,56.604c-20.1,0-42.6-2.6-58.6-9.1l0.2,9c6.2,2.6,12.1,6,17.4,10.1c11.5,2.9,26.1,4.5,41.1,4.5    c15.5,0,30.8-1.7,43-4.7c10.9-2.7,16-5.7,18-7.3v-11.9C323.1,53.604,299,56.604,278,56.604z" data-original="#000000" class="active-path" />
	</g>
</g>
  </g> </svg>