<?xml version="1.0" encoding="utf-8"?>
<svg version="1.1" id="Capa_1" xmlns="http://www.w3.org/2000/svg" xmlns:xlink="http://www.w3.org/1999/xlink" x="0px" y="0px" width="32px" height="32px" viewBox="0 0 69.117 69.117" style="enable-background:new 0 0 69.117 69.117;" xml:space="preserve" fill="#7c7979">
<g>
	<path d="M54.723,67.352v-3.884H0V47.561h54.723v-4.008l14.395,11.899L54.723,67.352z M0,33.427l5.435,1.377   h6.688c0-1.628,0.546-3.107,1.447-4.316H0V33.427z M62.396,19.93L58.554,8.403V5.524H46.521v24.959H25.064   c0.906,1.214,1.453,2.692,1.453,4.315h22.437c0-3.977,3.221-7.194,7.197-7.194c2.796,0,5.215,1.604,6.405,3.935   c0.425,0.826,0.699,1.771,0.762,2.754c0.01,0.166,0.041,0.332,0.041,0.51h5.758V22.809L62.396,19.93z M49.917,19.93v-8.647h6.721   l2.88,8.647H49.917z M19.327,29.528c-2.92,0-5.282,2.361-5.282,5.271c0,2.923,2.361,5.284,5.282,5.284   c2.91,0,5.271-2.361,5.271-5.284C24.599,31.895,22.232,29.528,19.327,29.528z M19.327,37.678c-1.595,0-2.889-1.294-2.889-2.879   c0-1.584,1.294-2.879,2.889-2.879c1.58,0,2.879,1.295,2.879,2.879C22.206,36.384,20.901,37.678,19.327,37.678z M56.156,29.528   c-2.92,0-5.276,2.361-5.276,5.271c0,2.923,2.356,5.284,5.276,5.284c2.916,0,5.282-2.361,5.282-5.284   C61.438,31.895,59.072,29.528,56.156,29.528z M56.156,37.678c-1.589,0-2.879-1.294-2.879-2.879c0-1.584,1.29-2.879,2.879-2.879   c1.59,0,2.88,1.295,2.88,2.879C59.036,36.384,57.746,37.678,56.156,37.678z M44.045,28.834H0V1.766h44.045V28.834z" />
</g>
<g>
</g>
<g>
</g>
<g>
</g>
<g>
</g>
<g>
</g>
<g>
</g>
<g>
</g>
<g>
</g>
<g>
</g>
<g>
</g>
<g>
</g>
<g>
</g>
<g>
</g>
<g>
</g>
<g>
</g>
</svg>