<?xml version="1.0" encoding="utf-8"?>
<svg enable-background="new 0 0 24 24" height="24" fill="#7c7979" viewBox="0 0 24 24" width="24" xmlns="http://www.w3.org/2000/svg">
  <path d="m17.743 14.87 1.781-1.555c.312-.272.345-.746.072-1.058-.272-.312-.746-.344-1.059-.072l-3.281 2.864c-.162.142-.256.348-.256.565s.094.423.257.565l3.281 2.863c.143.124.318.185.493.185.209 0 .417-.087.565-.257.272-.312.24-.786-.072-1.058l-1.758-1.534c2.622.079 4.733 2.268 4.733 4.962v1.909c0 .414.336.75.75.75s.751-.335.751-.749v-1.909c0-3.531-2.796-6.406-6.257-6.471z" />
  <path d="m13.44 1.59-9.08 4.58-3.61-1.75 8.92-4.34c.2-.1.44-.1.65 0z" />
  <path d="m19.25 4.42-9.24 4.51-3.46-1.68-.5-.25 9.09-4.58.5.25z" />
  <path d="m9.27 10.23-.01 9.49-8.85-4.55c-.25-.13-.41-.39-.41-.67v-8.78l3.75 1.82v3.2c0 .41.34.75.75.75s.75-.34.75-.75v-2.46l.5.24z" />
  <path d="m20.01 10.18c-.31-.12-.64-.18-.98-.18-.66 0-1.3.24-1.81.68l-3.28 2.86c-.6.53-.94 1.28-.94 2.07 0 .8.34 1.56.94 2.08l.28.24-3.46 1.78.01-9.49 9.23-4.49c.01 1.07.01 3.4.01 4.45z" />
</svg>