<?xml version="1.0" encoding="utf-8"?>
<svg xmlns="http://www.w3.org/2000/svg" height="32px" viewBox="0 -2 447 447" width="32px" fill="#7c7979">
  <g>
    <path d="m425 131h-194v277h194zm-35.199219 44.714844 14 .011718-.015625 22.148438-14-.007812zm-45.375-.011719 14 .011719-.015625 22.148437-14-.007812zm-45.378906-.011719 14 .011719-.015625 22.148437-14-.007812zm-45.375-.007812 14 .007812-.015625 22.148438-14-.007813zm-.046875 84.652344 14 .007812-.015625 22.152344-14-.011719zm.015625 40.992187 14 .007813-.015625 22.152343-14-.011719zm14 62.523437-14-.011718.015625-22.152344 14 .011719zm.03125-125.015624-14-.011719.015625-22.148438 14 .007813zm31.328125 21.511718 14 .007813-.015625 22.148437-14-.007812zm.015625 40.992188 14 .007812-.015625 22.152344-14-.011719zm14 62.519531-14-.007813.015625-22.152343 14 .011719zm.03125-125.015625-14-.007812.015625-22.148438 14 .007812zm31.328125 21.511719 14 .011719-.015625 22.148437-14-.007813zm.015625 40.992187 14 .011719-.015625 22.152344-14-.011719zm14 62.523438-14-.007813.015625-22.152343 14 .011718zm.03125-125.015625-14-.007813.015625-22.152344 14 .011719zm31.328125 21.511719 14 .011718-.015625 22.148438-14-.007813zm.015625 40.992187 14 .011719-.015625 22.148437-14-.007812zm14 62.523437-14-.011718.015625-22.148438 14 .007813zm.035156-125.015624-14-.007813.011719-22.152344 14 .011719zm0 0" data-original="#000000" class="active-path" />
    <path d="m0 422h447v20h-447zm0 0" data-original="#000000" class="active-path" />
    <path d="m217 123.742188v-123.742188h-194v408h194zm-21.199219 51.984374-.015625 22.148438-14-.007812.015625-22.152344zm-.03125-18.84375-14-.011718.015625-22.148438 14 .007813zm-.015625-40.363281-14-.007812.015625-22.152344 14 .011719zm-14-63.152343 14 .011718-.015625 22.148438-14-.007813zm-31.332031 122.347656-.015625 22.148437-14-.007812.015625-22.152344zm-.03125-18.84375-14-.007813.015625-22.152343 14 .011718zm-.015625-40.359375-14-.011719.015625-22.152344 14 .011719zm-14-63.15625 14 .011719-.015625 22.148437-14-.007813zm-31.328125 122.34375-.015625 22.152343-14-.007812.015625-22.152344zm-.03125-18.839844-14-.011719.011719-22.148437 14 .007812zm-.015625-40.359375-14-.011719.015625-22.148437 14 .007812zm-14-63.152344 14 .007813-.015625 22.148437-14-.007812zm-31.332031 122.34375-.015625 22.148438-14-.007813.015625-22.148437zm-.03125-18.839844-14-.011718.015625-22.152344 14 .011719zm-.015625-40.363281-14-.011719.015625-22.148437 14 .007813zm-14-63.152343 14 .007812-.015625 22.15625-14-.011719zm0 207 14 .007812-.015625 22.15625-14-.011719zm.015625 40.992187 14 .007813-.015625 22.152343-14-.011719zm14 62.523437-14-.011718.015625-22.152344 14 .011719zm.035156-125.015624-14-.011719.011719-22.148438 14 .007813zm31.328125 21.511718 14 .007813-.015625 22.148437-14-.007812zm.015625 40.992188 14 .007812-.015625 22.152344-14-.011719zm14 62.519531-14-.007813.015625-22.152343 14 .011719zm.03125-125.015625-14-.007812.015625-22.148438 14 .007812zm31.328125 21.511719 14 .011719-.015625 22.148437-14-.007813zm.015625 40.992187 14 .011719-.015625 22.152344-14-.011719zm14 62.523438-14-.007813.015625-22.152343 14 .011718zm.03125-125.015625-14-.007813.015625-22.152344 14 .011719zm31.328125 21.511719 14 .011718-.015625 22.148438-14-.007813zm.015625 40.992187 14 .011719-.015625 22.148437-14-.007812zm14 62.523437-14-.011718.015625-22.148438 14 .007813zm.035156-125.015624-14-.007813.011719-22.152344 14 .011719zm0 0" data-original="#000000" class="active-path" />
  </g>
</svg>