<?xml version="1.0" encoding="utf-8"?>
<svg version="1.0" xmlns="http://www.w3.org/2000/svg" width="24" height="24" viewBox="0 0 565.000000 558.000000" fill="#7c7979" preserveAspectRatio="xMidYMid meet">
  <g transform="translate(0.000000,558.000000) scale(0.100000,-0.100000)" stroke="none">
    <path d="M2735 5558 c-22 -11 -224 -123 -450 -248 -225 -125 -795 -440 -1265 -700 -470 -260 -868 -484 -884 -499 -60 -55 -81 -144 -51 -219 15 -36 36 -49 718 -419 386 -210 1000 -544 1365 -742 l663 -361 932 507 c513 278 1127 612 1366 741 489 266 467 249 459 364 -8 109 -14 114 -433 345 -203 113 -796 441 -1318 729 -946 524 -947 524 -1005 524 -38 -1 -70 -8 -97 -22z m-625 -1068 l0 -160 -74 0 -74 0 -7 63 c-3 34 -8 74 -11 90 l-6 27 -249 0 -249 0 0 -230 0 -230 245 0 245 0 0 -70 0 -70 -245 0 -245 0 0 -225 0 -224 38 -7 c116 -20 107 -13 110 -77 l3 -57 -246 0 -246 0 3 57 c3 64 -6 57 111 77 l37 7 0 523 0 523 -75 12 -75 12 0 60 0 59 505 0 505 0 0 -160z m630 96 c0 -71 2 -69 -75 -81 -83 -14 -75 45 -75 -530 l0 -513 23 -5 c12 -3 46 -9 75 -13 l52 -7 0 -58 0 -59 -240 0 -240 0 0 59 0 59 48 7 c26 3 57 9 70 12 l22 5 -2 517 -3 516 -65 10 -65 10 -3 68 -3 67 241 0 240 0 0 -64z m764 -438 c116 -274 213 -498 216 -498 3 0 98 225 210 500 l205 500 208 0 207 0 0 -65 c0 -72 6 -67 -95 -83 l-50 -7 -3 -517 -2 -517 37 -7 c117 -20 108 -13 111 -77 l3 -57 -246 0 -245 0 0 58 0 58 77 12 c42 7 78 14 80 16 2 1 2 209 1 460 l-3 458 -214 -507 -215 -506 -65 3 -66 3 -217 495 c-120 272 -220 500 -222 505 -3 6 -2 -197 1 -450 3 -253 7 -461 8 -462 1 -2 36 -8 78 -15 l77 -12 0 -58 0 -58 -245 0 -246 0 3 57 c3 64 -6 57 111 77 l37 7 -2 517 -3 517 -50 7 c-101 16 -95 11 -95 83 l0 65 201 -2 202 -3 211 -497z" />
    <path d="M360 3031 c-107 -59 -211 -123 -231 -143 -58 -56 -74 -150 -37 -224 10 -22 233 -147 1109 -623 1540 -838 1610 -876 1625 -879 7 -2 66 26 131 61 65 35 505 275 978 532 473 257 1030 560 1238 673 235 127 385 214 394 229 40 61 22 181 -35 236 -22 21 -381 226 -427 243 -7 3 -88 -36 -181 -87 -93 -50 -203 -109 -244 -132 -41 -22 -142 -77 -225 -122 -82 -46 -388 -212 -680 -370 -291 -158 -609 -330 -704 -383 -143 -78 -184 -96 -227 -100 -60 -5 -48 -11 -403 183 -1528 829 -1871 1015 -1878 1014 -4 0 -96 -49 -203 -108z" />
    <path d="M380 1944 c-124 -68 -218 -126 -237 -148 -73 -79 -66 -202 14 -278 16 -16 486 -280 1044 -589 557 -308 1139 -630 1292 -715 154 -84 297 -159 319 -164 57 -16 88 -6 223 67 800 437 2496 1381 2517 1401 66 61 77 187 22 264 -24 35 -63 60 -244 159 l-214 118 -31 -18 c-16 -10 -120 -67 -230 -126 -110 -59 -584 -317 -1054 -572 -469 -256 -872 -471 -895 -479 -76 -28 -58 -36 -621 271 -551 300 -1656 900 -1680 912 -17 8 -55 -9 -225 -103z" />
  </g>
</svg>