<?xml version="1.0" encoding="utf-8"?>
<svg id="Layer_1" fill="#7c7979" enable-background="new 0 0 510.533 510.533" height="24" viewBox="0 0 510.533 510.533" width="24" xmlns="http://www.w3.org/2000/svg">
  <g>
    <g>
      <path d="m240.002 0h32.27v41.516h-32.27z" />
      <path d="m337.385 0h-34.246v56.95c0 8.524-6.91 15.433-15.433 15.433h-63.137c-8.524 0-15.433-6.91-15.433-15.433v-56.95h-35.591c-6.067 0-10.986 4.918-10.986 10.986v168.912h187.156v-167.568c0-6.81-5.52-12.33-12.33-12.33z" />
    </g>
    <path d="m129.964 206.137h32.27v41.516h-32.27z" />
    <path d="m347.987 206.137h32.27v41.516h-32.27z" />
    <path d="m483.384 433.033c2.474 0 4.479-2.005 4.479-4.479v-22.607c0-2.474-2.005-4.479-4.479-4.479h-456.234c-2.474 0-4.479 2.005-4.479 4.479v22.607c0 2.474 2.005 4.479 4.479 4.479z" />
    <g>
      <path d="m36.753 502.899c0 4.217 3.418 7.635 7.635 7.635h73.844c4.216 0 7.635-3.418 7.635-7.635v-38.999h-89.114z" />
      <path d="m211.517 502.899c0 4.217 3.418 7.635 7.635 7.635h73.844c4.216 0 7.635-3.418 7.635-7.635v-38.999h-89.113v38.999z" />
      <path d="m382.492 502.899c0 4.217 3.418 7.635 7.635 7.635h73.844c4.216 0 7.635-3.418 7.635-7.635v-38.999h-89.113v38.999z" />
      <path d="m233.199 206.137h-40.098v56.95c0 8.524-6.91 15.433-15.433 15.433h-63.137c-8.524 0-15.433-6.91-15.433-15.433v-56.95h-34.329c-6.765 0-12.248 5.484-12.248 12.248v152.215h187.156v-157.985c0-3.577-2.9-6.478-6.478-6.478z" />
      <path d="m457.7 217.831c0-6.458-5.235-11.694-11.694-11.694h-34.883v59.187c0 7.288-5.908 13.196-13.196 13.196h-67.611c-7.288 0-13.196-5.908-13.196-13.196v-59.187h-40.538c-3.335 0-6.038 2.703-6.038 6.038v158.425h187.156z" />
    </g>
  </g>
</svg>