<?xml version="1.0" encoding="utf-8"?>
<svg xmlns="http://www.w3.org/2000/svg" viewBox="0 0 192 192" width="24" height="24" fill="#7c7979">
  <g id="_04-factory" data-name="04-factory">
    <g id="Glyph">
      <path d="M98,80.251a8.243,8.243,0,0,0-6.632,1.222L56,105.052V88.225a8.222,8.222,0,0,0-2.929-6.418A8.01,8.01,0,0,0,43,81.753l-40,32A8,8,0,0,0,0,120v64a8,8,0,0,0,8,8h96V88A8.008,8.008,0,0,0,98,80.251Z" />
      <path d="M184,120H112v72h72a8,8,0,0,0,8-8V128A8,8,0,0,0,184,120Zm-40,56H128V160h16Zm0-24H128V136h16Zm32,24H160V160h16Zm0-24H160V136h16Z" />
      <path d="M72,16c3.576,0,4.908.888,7.56,2.656C82.945,20.911,87.578,24,96,24s13.056-3.088,16.438-5.343C115.092,16.888,116.424,16,120,16s4.91.888,7.563,2.657C130.948,20.912,135.581,24,144,24V8c-3.578,0-4.91-.888-7.564-2.657C133.058,3.088,128.425,0,120,0s-13.056,3.088-16.439,5.343C100.91,7.112,99.578,8,96,8s-4.908-.888-7.562-2.656C85.057,3.088,80.424,0,72,0S58.948,3.088,55.565,5.344C52.912,7.112,51.581,8,48,8V24c8.422,0,13.054-3.088,16.436-5.344C67.094,16.888,68.425,16,72,16Z" />
      <path d="M24,48c3.576,0,4.908.888,7.56,2.656C34.945,52.911,39.578,56,48,56s13.056-3.088,16.438-5.343C67.092,48.888,68.424,48,72,48s4.91.888,7.563,2.657C82.948,52.912,87.581,56,96,56V40c-3.578,0-4.91-.888-7.564-2.657C85.058,35.088,80.425,32,72,32s-13.056,3.088-16.439,5.343C52.91,39.112,51.578,40,48,40s-4.908-.888-7.562-2.656C37.057,35.088,32.424,32,24,32S10.948,35.088,7.565,37.344C4.912,39.112,3.581,40,0,40V56c8.422,0,13.054-3.088,16.436-5.344C19.094,48.888,20.425,48,24,48Z" />
      <path d="M136.027,39.335,131.305,112H172.7l-4.722-72.665A8,8,0,0,0,160,32H144A8,8,0,0,0,136.027,39.335Z" />
    </g>
  </g>
</svg>