<?xml version="1.0" encoding="utf-8"?>
<svg version="1.0" xmlns="http://www.w3.org/2000/svg" fill="#7c7979" width="24" height="24" viewBox="0 0 660.000000 544.000000" preserveAspectRatio="xMidYMid meet">
  <g transform="translate(0.000000,544.000000) scale(0.100000,-0.100000)" stroke="none">
    <path d="M2780 5395 c-30 -7 -648 -127 -1372 -266 l-1318 -253 0 -1877 0 -1877 92 -17 c51 -9 660 -126 1353 -260 693 -133 1277 -246 1297 -249 l38 -7 2 2358 c2 1297 2 2382 0 2411 -3 59 -3 59 -92 37z m-1458 -1762 c80 -170 153 -332 163 -360 9 -29 18 -53 19 -53 2 0 18 37 35 83 17 45 98 206 179 357 l147 275 234 3 c218 2 233 1 227 -15 -4 -10 -127 -216 -274 -458 -147 -242 -267 -449 -267 -460 1 -11 126 -225 279 -475 153 -250 280 -458 283 -463 2 -4 -109 -6 -248 -5 l-251 3 -164 310 c-91 171 -172 335 -181 365 l-16 55 -22 -65 c-12 -36 -95 -201 -185 -368 l-162 -302 -249 0 c-137 0 -249 2 -249 5 0 3 133 214 295 469 l296 463 -265 455 c-146 250 -268 462 -272 471 -6 16 14 17 248 17 l255 0 145 -307z" />
    <path d="M3060 4580 l0 -280 280 0 280 0 0 -185 0 -185 -280 0 -280 0 0 -185 0 -185 280 0 280 0 0 -185 0 -185 -274 0 c-188 0 -277 -3 -282 -11 -3 -6 -1 -116 6 -245 l13 -234 56 0 c477 0 1700 23 1718 31 11 6 29 30 40 52 17 39 18 89 18 997 0 937 0 956 -20 989 -26 44 -62 70 -111 81 -22 5 -412 10 -881 10 l-843 0 0 -280z m1480 -465 l0 -185 -370 0 -370 0 0 185 0 185 370 0 370 0 0 -185z m0 -740 l0 -185 -370 0 -370 0 0 185 0 185 370 0 370 0 0 -185z" />
    <path d="M3161 2388 c-25 -13 -59 -40 -75 -61 l-31 -39 -3 -554 -2 -554 1080 0 1080 0 0 538 0 538 -22 44 c-13 24 -40 58 -61 74 l-39 31 -941 3 -942 2 -44 -22z" />
    <path d="M5340 1735 l0 -225 370 0 c204 0 370 3 370 6 0 4 -39 82 -86 173 -147 281 -129 270 -436 271 l-218 0 0 -225z" />
    <path d="M5347 1373 c-4 -3 -7 -192 -7 -420 l0 -413 83 0 82 1 34 55 c41 68 124 135 205 166 84 32 207 31 289 -1 75 -30 152 -92 201 -164 l40 -57 88 0 c137 0 128 -25 128 359 0 289 -2 321 -17 339 -10 10 -82 47 -160 81 l-141 61 -409 0 c-225 0 -413 -3 -416 -7z" />
    <path d="M3050 812 c0 -280 -3 -272 96 -272 59 0 61 1 77 35 55 116 222 215 362 215 71 0 168 -31 232 -75 53 -36 126 -118 138 -155 6 -20 16 -20 631 -20 l624 0 0 255 0 255 -1080 0 -1080 0 0 -238z" />
    <path d="M5839 649 c-134 -20 -230 -134 -230 -274 0 -293 385 -392 525 -135 57 104 43 225 -36 315 -67 76 -158 109 -259 94z" />
    <path d="M3462 624 c-170 -85 -211 -315 -78 -447 62 -62 110 -82 201 -82 71 0 86 3 135 31 168 95 197 319 58 451 -80 77 -216 97 -316 47z" />
  </g>
</svg>