<?xml version="1.0" encoding="utf-8"?>
<svg xmlns="http://www.w3.org/2000/svg" xmlns:xlink="http://www.w3.org/1999/xlink" version="1.1" id="Capa_1" x="0px" y="0px" viewBox="0 0 512 512" style="enable-background:new 0 0 512 512;" xml:space="preserve" width="24px" height="24px" fill="#7c7979">
  <g>
    <g>
	<g>
		<circle cx="256" cy="88.32" r="76.8" data-original="#000000" class="active-path" />
	</g>
</g>
    <g>
	<g>
		<path d="M332.8,190.72H179.2c-15.36,0-25.6,10.24-25.6,25.6v156.16c0,15.36,10.24,25.6,25.6,25.6h25.6v102.4h102.4v-102.4h25.6    c15.36,0,25.6-10.24,25.6-25.6V216.32C358.4,200.96,345.6,190.72,332.8,190.72z" data-original="#000000" class="active-path" />
	</g>
</g>
    <g>
	<g>
		<circle cx="76.8" cy="113.92" r="51.2" data-original="#000000" class="active-path" />
	</g>
</g>
    <g>
	<g>
		<path d="M102.4,372.48V216.32c0-10.24,2.56-17.92,5.12-25.6H25.6c-15.36,0-25.6,12.8-25.6,25.6v156.16    c0,15.36,10.24,25.6,25.6,25.6v102.4H128V428.8C112.64,413.44,102.4,392.96,102.4,372.48z" data-original="#000000" class="active-path" />
	</g>
</g>
    <g>
	<g>
		<circle cx="435.2" cy="113.92" r="51.2" data-original="#000000" class="active-path" />
	</g>
</g>
    <g>
	<g>
		<path d="M486.4,190.72h-81.92c2.56,7.68,5.12,15.36,5.12,25.6v156.16c0,23.04-10.24,43.52-25.6,56.32v71.68h102.4v-102.4    c12.8,0,25.6-10.24,25.6-25.6V216.32C512,200.96,499.2,190.72,486.4,190.72z" data-original="#000000" class="active-path" />
	</g>
</g>
  </g> </svg>