<?xml version="1.0" encoding="utf-8"?>
<svg id="Capa_1" enable-background="new 0 0 512.51 512.51" height="24" viewBox="0 0 512.51 512.51" width="24" xmlns="http://www.w3.org/2000/svg" fill="#7c7979">
  <g>
    <path d="m128.738 443.482c-12.362 15.301-31.263 25.111-52.421 25.111-21.157 0-40.058-9.81-52.42-25.112-14.518 13.266-23.642 32.342-23.642 53.511v15.008h152.125v-15.008c.001-21.169-9.123-40.245-23.642-53.51z" />
    <circle cx="76.318" cy="401.213" r="38.38" />
    <path d="m91.326 270.858h150.779v56.575h30.016v-56.575h149.065v56.575h30.016v-86.591h-179.082v-21.938c-4.922.594-9.928.908-15.008.908-5.079 0-10.086-.313-15.008-.908v21.938h-180.794v86.591h30.016z" />
    <path d="m308.676 443.992c-12.362 15.301-31.263 25.111-52.421 25.111-21.157 0-40.058-9.81-52.42-25.112-14.519 13.265-23.643 32.341-23.643 53.511v15.008h152.125v-15.008c.001-21.169-9.123-40.245-23.641-53.51z" />
    <circle cx="256.255" cy="401.723" r="38.38" />
    <path d="m488.613 443.992c-12.362 15.301-31.263 25.111-52.421 25.111-21.157 0-40.058-9.81-52.42-25.112-14.519 13.265-23.643 32.341-23.643 53.511v15.008h152.125v-15.008c.001-21.169-9.123-40.245-23.641-53.51z" />
    <circle cx="436.192" cy="401.723" r="38.38" />
    <path d="m352.519 95.406c0-52.607-42.799-95.406-95.406-95.406s-95.406 42.799-95.406 95.406 42.799 95.406 95.406 95.406 95.406-42.798 95.406-95.406zm-130.515 32.716 8.457-19.14c7.345 4.34 17.137 7.122 25.706 7.122 7.456 0 10.126-1.558 10.126-4.229 0-9.793-43.065-1.892-43.065-30.935 0-12.574 9.125-23.146 27.375-25.705v-12.13h15.691v11.907c8.235.779 16.247 2.893 22.59 6.454l-7.901 19.029c-7.679-3.895-14.912-5.787-21.7-5.787-7.679 0-10.126 2.226-10.126 4.897 0 9.347 43.065 1.558 43.065 30.268 0 12.018-8.68 22.478-25.928 25.483v12.352h-15.691v-11.796c-11.129-.668-21.923-3.672-28.599-7.79z" />
  </g>
</svg>