<?xml version="1.0" encoding="utf-8"?>
<svg height="32" fill="#7a8190" viewBox="0 0 512 512" width="32" xmlns="http://www.w3.org/2000/svg">
  <path d="m119.976562 450.914062v30.992188h90.984376v-30.992188zm123.976563-166.96875v-74.984374c0-8.261719-6.738281-15-14.996094-15h-24.988281v22.496093c0 8.285157-6.714844 15-14.996094 15s-14.996094-6.714843-14.996094-15v-22.496093h-24.984374c-8.261719 0-15 6.738281-15 15v74.984374c0 8.261719 6.738281 14.996094 15 14.996094h79.964843c8.257813 0 14.996094-6.734375 14.996094-14.996094zm-198.960937 14.996094v-283.945312c0-8.28125 6.714843-14.996094 14.996093-14.996094h108.980469v34.992188c0 8.285156 6.714844 15 14.996094 15s14.996094-6.714844 14.996094-15v-34.992188h108.980468c8.28125 0 14.996094 6.714844 14.996094 14.996094v73.984375h-63.988281c-8.28125 0-14.996094 6.714843-14.996094 14.996093v59.992188h-124.957031c-8.28125 0-14.996094 6.714844-14.996094 14.996094v119.976562zm395.921874-179.964844h-60.976562c.007812 8-.011719 18.667969-.011719 26.996094 0 8.28125-6.714843 14.996094-14.996093 14.996094s-14.996094-6.714844-14.996094-14.996094c0-8.910156.109375-18.058594-.011719-26.996094l-60.976563-.003906c-8.261718 0-14.996093 6.738282-14.996093 15v149.972656c0 8.261719 6.734375 14.996094 14.996093 14.996094h151.96875c8.261719 0 15-6.734375 15-14.996094v-149.972656c0-8.28125-6.714843-14.996094-15-14.996094zm53.992188 224.957032v31.996094c0 8.257812-6.738281 14.996093-15 14.996093h-146.949219c-8.261719 0-15-6.738281-15-14.996093v-31.996094c0-8.261719 6.738281-14.996094 15-14.996094h58.476563v20.996094c0 8.28125 6.714844 14.996094 14.996094 14.996094 8.285156 0 15-6.714844 15-14.996094v-20.996094h58.476562c8.261719 0 15 6.738281 15 14.996094zm-474.820312 31.996094v-31.996094c0-8.261719 6.734374-14.996094 14.996093-14.996094h237.886719c8.257812 0 14.996094 6.734375 14.996094 14.996094v31.996094c0 8.257812-6.738282 14.996093-14.996094 14.996093h-237.886719c-8.261719 0-14.996093-6.738281-14.996093-14.996093zm280.855468 74.984374v30.992188h90.984375v-30.992188zm180.964844 0v30.992188h15.097656c8.28125 0 14.996094 6.714844 14.996094 14.996094 0 8.285156-6.714844 15-14.996094 15h-482.007812c-8.28125 0-14.996094-6.714844-14.996094-15 0-8.28125 6.714844-14.996094 14.996094-14.996094h15v-30.992188h-15c-8.28125 0-14.996094-6.714843-14.996094-15 0-8.28125 6.714844-14.996093 14.996094-14.996093h481.910156c8.28125 0 14.996094 6.714843 14.996094 14.996093 0 8.285157-6.714844 15-14.996094 15zm0 0" fill-rule="evenodd" />
</svg>