<?xml version="1.0" encoding="utf-8"?>
<svg version="1.1" id="Capa_1" xmlns="http://www.w3.org/2000/svg" xmlns:xlink="http://www.w3.org/1999/xlink" x="0px" y="0px" fill="#7c7979" width="24" height="24" viewBox="0 0 511.999 511.999" style="enable-background:new 0 0 511.999 511.999;" xml:space="preserve">
<g>
	<g>
		<path d="M183.303,213.057c6.445,27.803,28.359,49.717,56.162,56.162C233.02,241.416,211.106,219.502,183.303,213.057z" />
	</g>
</g>
<g>
	<g>
		<path d="M273.302,269.219c27.803-6.446,49.717-28.36,56.162-56.162C301.661,219.503,279.747,241.416,273.302,269.219z" />
	</g>
</g>
<g>
	<g>
		<path d="M273.302,389.218c27.803-6.446,49.717-28.36,56.162-56.162C301.661,339.502,279.747,361.416,273.302,389.218z" />
	</g>
</g>
<g>
	<g>
		<path d="M183.303,333.057c6.445,27.803,28.359,49.717,56.162,56.162C233.02,361.416,211.106,339.502,183.303,333.057z" />
	</g>
</g>
<g>
	<g>
		<path d="M256.37,98.595c-6.958,9.126-14.985,22.837-14.985,37.544c0,14.663,8.042,28.403,15.015,37.544    c6.958-9.126,14.985-22.837,14.985-37.544C271.383,121.476,263.341,107.735,256.37,98.595z" />
	</g>
</g>
<g>
	<g>
		<path d="M448.201,83.999c17.798-23.174,17.798-44.355,17.798-68.833c0-8.276-7.866-15-16.157-15    c-23.174,0.425-43.418-1.214-66.021,15.368c-75.527-20.713-180.116-20.713-255.644,0C105.927-0.798,85.845,0.167,62.144,0.167    c-8.657,0.044-15.757,4.192-15.743,12.864c0,24.199-0.4,47.795,17.398,70.969c-31.846,141.898-24.39,236.158-0.015,344.174    c-17.783,23.159-17.383,44.341-17.383,68.818c0.015,8.628,8.125,15.22,16.753,15c22.749,0,42.773,0.884,65.068-15.463    c75.498,20.625,180.058,20.625,255.556,0c22.28,16.348,42.393,15.463,66.079,15.463c8.54,0.029,16.343-6.621,16.343-15.293    c0-24.199-0.2-45.366-17.983-68.525C472.59,320.157,480.046,225.897,448.201,83.999z M346.383,301.138c8.291,0,15,6.709,15,15    c0,52.755-39.25,96.126-89.999,103.483v16.516c0,19.773-30,19.854-30,0v-16.516c-50.75-7.357-89.999-50.729-89.999-103.483    c0-8.291,6.709-15,15-15c29.392,0,55.92,12.217,75,31.749v-33.265c-50.75-7.357-89.999-50.729-89.999-103.483    c0-8.291,6.709-15,15-15c29.392,0,55.92,12.217,75,31.749v-10.58c-9.628-10.203-30-35.35-30-66.169    c0-39.39,33.56-69.888,34.995-71.177c5.684-5.098,14.326-5.098,20.01,0c1.436,1.289,34.995,31.787,34.995,71.177    c0,30.818-20.372,55.966-30,66.169v10.58c19.08-19.532,45.608-31.749,75-31.749c8.291,0,15,6.709,15,15    c0,52.755-39.25,96.126-89.999,103.483v33.265C290.463,313.354,316.991,301.138,346.383,301.138z" />
	</g>
</g>
<g>
</g>
<g>
</g>
<g>
</g>
<g>
</g>
<g>
</g>
<g>
</g>
<g>
</g>
<g>
</g>
<g>
</g>
<g>
</g>
<g>
</g>
<g>
</g>
<g>
</g>
<g>
</g>
<g>
</g>
</svg>