<?xml version="1.0" encoding="utf-8"?>
<svg version="1.0" xmlns="http://www.w3.org/2000/svg" fill="#7c7979" width="32" height="32" viewBox="0 0 389.000000 509.000000" preserveAspectRatio="xMidYMid meet">
  <g transform="translate(0.000000,509.000000) scale(0.100000,-0.100000)" stroke="none">
    <path d="M40 2540 l0 -2500 1910 0 1910 0 0 1765 0 1765 -735 0 -735 0 0 735 0 735 -1175 0 -1175 0 0 -2500z m1178 1745 l3 -160 52 -24 c104 -49 200 -176 226 -299 21 -99 31 -92 -134 -92 l-144 0 -11 38 c-13 47 -26 64 -70 91 -101 61 -235 -32 -215 -149 8 -47 58 -106 96 -113 13 -3 61 -12 105 -20 254 -46 398 -220 381 -460 -10 -147 -100 -284 -232 -354 l-55 -28 -2 -160 -3 -160 -147 -3 -148 -3 0 164 0 164 -42 19 c-129 58 -227 194 -244 339 l-7 55 146 0 146 0 11 -39 c13 -48 66 -97 114 -106 101 -20 192 79 165 179 -15 57 -58 93 -127 105 -128 24 -157 33 -217 61 -91 43 -148 99 -190 184 -68 136 -57 314 25 439 41 60 109 121 171 149 l48 23 1 163 0 163 148 -3 147 -3 3 -160z m882 -1745 l0 -150 -150 0 -150 0 0 150 0 150 150 0 150 0 0 -150z m1170 0 l0 -150 -440 0 -440 0 0 150 0 150 440 0 440 0 0 -150z m-2580 -857 c89 -424 88 -425 89 45 l1 312 182 0 181 0 -6 -97 c-4 -54 -7 -423 -7 -820 l0 -723 -182 0 -183 0 -74 343 c-41 188 -80 362 -87 387 -10 38 -12 -18 -13 -342 l-1 -388 -180 0 -180 0 0 820 0 820 193 0 193 0 74 -357z m1340 197 l0 -160 -185 0 -185 0 0 -130 0 -130 175 0 175 0 0 -155 0 -155 -175 0 -175 0 0 -375 0 -375 -185 0 -185 0 0 820 0 820 370 0 370 0 0 -160z m1388 -85 c145 -34 228 -108 266 -235 13 -42 16 -102 16 -272 l0 -218 -271 0 -271 0 4 -191 c3 -188 3 -191 27 -210 34 -28 88 -22 113 11 14 20 20 51 25 143 l6 117 184 0 183 0 0 -77 c0 -110 -16 -198 -49 -268 -49 -105 -112 -154 -241 -186 -71 -18 -104 -21 -210 -17 -195 8 -292 55 -357 174 -57 104 -63 157 -63 546 0 365 5 418 45 499 43 84 144 155 263 183 77 19 252 19 330 1z m-758 -815 l0 -110 -270 0 -270 0 0 110 0 110 270 0 270 0 0 -110z" />
    <path d="M3207 1549 c-35 -20 -47 -72 -47 -194 l0 -115 85 0 85 0 0 103 c0 56 -5 120 -10 142 -14 63 -65 92 -113 64z" />
    <path d="M2680 4406 l0 -546 547 0 546 0 -539 543 c-296 298 -542 544 -546 545 -5 2 -8 -242 -8 -542z" />
  </g>
</svg>