<?xml version="1.0" encoding="utf-8"?>
<svg version="1.0" xmlns="http://www.w3.org/2000/svg" fill="#7c7979" width="32" height="32" viewBox="0 0 388.000000 507.000000" preserveAspectRatio="xMidYMid meet">
  <g transform="translate(0.000000,507.000000) scale(0.100000,-0.100000)" stroke="none">
    <path d="M30 2530 l0 -2500 1910 0 1910 0 0 1765 0 1765 -735 0 -735 0 0 735 0 735 -1175 0 -1175 0 0 -2500z m1178 1745 l3 -160 52 -24 c104 -49 200 -176 226 -299 21 -99 31 -92 -134 -92 l-144 0 -11 38 c-13 47 -26 64 -70 91 -101 61 -235 -32 -215 -149 8 -47 58 -106 96 -113 13 -3 61 -12 105 -20 254 -46 398 -220 381 -460 -10 -147 -100 -284 -232 -354 l-55 -28 -2 -160 -3 -160 -147 -3 -148 -3 0 164 0 164 -42 19 c-129 58 -227 194 -244 339 l-7 55 146 0 146 0 11 -39 c13 -48 66 -97 114 -106 101 -20 192 79 165 179 -15 57 -58 93 -127 105 -128 24 -157 33 -217 61 -91 43 -148 99 -190 184 -68 136 -57 314 25 439 41 60 109 121 171 149 l48 23 1 163 0 163 148 -3 147 -3 3 -160z m882 -1745 l0 -150 -150 0 -150 0 0 150 0 150 150 0 150 0 0 -150z m1170 0 l0 -150 -440 0 -440 0 0 150 0 150 440 0 440 0 0 -150z m-1058 -528 c117 -58 164 -151 183 -369 l7 -73 -151 0 -151 0 0 54 c0 103 -38 149 -94 113 -30 -20 -39 -57 -26 -105 14 -52 32 -76 166 -224 215 -236 244 -293 251 -504 11 -283 -66 -454 -223 -500 -79 -23 -220 -16 -289 15 -140 62 -195 193 -195 467 l0 134 145 0 145 0 0 -129 c0 -140 7 -173 40 -191 61 -33 95 20 88 138 -7 114 -33 161 -192 341 -200 226 -242 327 -219 524 16 129 45 200 107 262 69 68 121 86 247 82 84 -2 103 -6 161 -35z m-1682 -39 c6 -38 32 -196 59 -353 l48 -285 7 353 8 352 139 0 139 0 0 -707 c0 -390 -3 -759 -7 -821 l-6 -113 -141 3 -141 3 -65 378 -65 379 -3 -381 -2 -381 -145 0 -145 0 0 653 c0 360 3 729 7 820 l6 167 148 0 147 0 12 -67z m1110 -32 c0 -54 -3 -126 -6 -160 l-7 -61 -138 0 -139 0 0 -130 0 -130 135 0 135 0 0 -155 0 -155 -134 0 -133 0 -7 -37 c-3 -21 -6 -190 -6 -375 l0 -338 -145 0 -145 0 0 820 0 820 295 0 295 0 0 -99z m1910 -162 c61 -28 112 -74 137 -123 36 -69 43 -127 43 -358 l0 -228 -216 0 -216 0 4 -183 c3 -207 12 -237 68 -237 47 0 58 28 66 173 l7 127 143 0 144 0 0 -100 c0 -175 -39 -308 -112 -377 -54 -52 -120 -76 -229 -81 -207 -10 -313 65 -366 259 -16 56 -18 112 -18 459 0 353 2 401 18 454 36 115 108 192 212 226 89 29 239 24 315 -11z m-640 -799 l0 -110 -215 0 -215 0 0 110 0 110 215 0 215 0 0 -110z" />
    <path d="M3331 1533 c-30 -24 -40 -78 -41 -200 l0 -103 71 0 71 0 -4 128 c-2 80 -9 136 -18 152 -23 44 -45 50 -79 23z" />
    <path d="M2670 4396 l0 -546 547 0 546 0 -539 543 c-296 298 -542 544 -546 545 -5 2 -8 -242 -8 -542z" />
  </g>
</svg>