<?xml version="1.0" encoding="utf-8"?>
<svg id="Layer_1" enable-background="new 0 0 512 512" height="32" viewBox="0 0 512 512" width="32" fill="#7c7979" xmlns="http://www.w3.org/2000/svg">
  <g>
    <path d="m508.017 122.953-109.137-118.132c-2.839-3.073-6.833-4.821-11.018-4.821s-8.179 1.748-11.018 4.821l-109.137 118.132c-4.044 4.377-5.113 10.732-2.725 16.192 2.389 5.459 7.783 8.987 13.742 8.987h29.916v7.876c1.472 1.324 4.047 3.692 4.703 4.349l38.301 38.301c8.31 8.31 12.887 19.359 12.887 31.112 0 10.572-3.703 20.575-10.496 28.526 22.622 1.799 40.48 20.784 40.48 43.861v54.168c0 23.077-17.858 42.062-40.48 43.861 6.793 7.95 10.496 17.953 10.496 28.526 0 11.753-4.577 22.803-12.889 31.113l-38.3 38.302c-.254.254-.518.493-.777.74.512 3.066 1.952 5.922 4.18 8.148 2.813 2.809 6.625 4.386 10.6 4.386h.02l120.588-.159c8.276-.011 14.98-6.724 14.98-15v-348.11h34.067c5.959 0 11.354-3.527 13.742-8.987s1.319-11.815-2.725-16.192z" />
    <path d="m180.608 357.384c-16.102 0-29.951 11.192-33.759 26.356 9.903 5.865 21.442 9.246 33.762 9.246 12.325 0 23.869-3.384 33.775-9.253-3.773-15.329-17.495-26.349-33.778-26.349z" />
    <path d="m180.611 260.046c-36.652 0-66.47 29.818-66.47 66.47 0 12.635 3.546 24.457 9.692 34.526 5.296-9.569 12.943-17.657 22.114-23.506-3.529-5.98-5.564-12.944-5.564-20.377 0-22.181 18.045-40.226 40.226-40.226 22.18 0 40.225 18.045 40.225 40.226 0 7.404-2.019 14.341-5.523 20.306 3.167 2.012 6.182 4.298 8.994 6.867 5.312 4.853 9.718 10.492 13.113 16.667 6.129-10.06 9.664-21.866 9.664-34.483-.001-36.652-29.819-66.47-66.471-66.47z" />
    <path d="m190.833 317.159c0-5.638-4.587-10.226-10.225-10.226s-10.226 4.587-10.226 10.226 4.587 10.225 10.226 10.225 10.225-4.587 10.225-10.225z" />
    <path d="m331.138 439.32c5.858-5.858 5.858-15.355 0-21.213l-12.649-12.65c6.081-10.793 10.812-22.21 14.142-34.13h17.886c8.284 0 15-6.716 15-15v-54.168c0-8.284-6.716-15-15-15h-17.887c-3.33-11.92-8.061-23.337-14.142-34.13l12.649-12.65c5.858-5.858 5.858-15.355 0-21.213l-38.302-38.303c-2.813-2.813-6.628-4.394-10.606-4.394s-7.793 1.581-10.606 4.393l-12.651 12.651c-10.794-6.082-22.208-10.812-34.13-14.142v-17.886c0-8.284-6.716-15-15-15h-54.168c-8.284 0-15 6.716-15 15v17.886c-11.922 3.331-23.337 8.061-34.131 14.142l-12.65-12.65c-2.813-2.813-6.628-4.394-10.606-4.394-3.979 0-7.793 1.581-10.607 4.394l-38.302 38.303c-5.857 5.858-5.857 15.355 0 21.213l12.65 12.65c-6.082 10.794-10.811 22.208-14.142 34.13h-17.886c-8.284 0-15 6.716-15 15v54.168c0 8.284 6.716 15 15 15h17.886c3.331 11.922 8.061 23.337 14.142 34.13l-12.65 12.65c-2.813 2.813-4.394 6.628-4.394 10.607 0 3.978 1.58 7.793 4.393 10.606l38.302 38.303c2.813 2.813 6.628 4.394 10.607 4.394 3.978 0 7.793-1.58 10.606-4.394l12.65-12.65c10.794 6.082 22.209 10.812 34.131 14.142v17.885c0 8.284 6.716 15 15 15h54.168c8.284 0 15-6.716 15-15v-17.886c11.922-3.331 23.337-8.061 34.13-14.142l12.651 12.651c2.813 2.813 6.628 4.393 10.606 4.393s7.794-1.581 10.606-4.394zm-150.527-16.334c-53.194 0-96.47-43.276-96.47-96.47s43.276-96.47 96.47-96.47c53.193 0 96.47 43.276 96.47 96.47 0 53.193-43.276 96.47-96.47 96.47z" />
  </g>
</svg>