<?xml version="1.0" encoding="utf-8"?>
<svg id="Layer_1" enable-background="new 0 0 511.928 511.928" height="32" fill="#7c7979" viewBox="0 0 511.928 511.928" width="32" xmlns="http://www.w3.org/2000/svg">
  <path d="m235.962 262.197c0-16.6-10.235-30.854-24.725-36.784v-52.752h-73.271v52.752c-14.49 5.931-24.725 20.185-24.725 36.784v78.624h122.721z" />
  <path d="m373.962 225.413v-52.752h-73.271v52.752c-14.028 5.741-24.067 19.283-24.694 35.202h122.658c-.626-15.919-10.665-29.461-24.693-35.202z" />
  <path d="m70.566 370.823c-38.903 0-70.552 31.649-70.552 70.552s31.649 70.553 70.552 70.553h370.797c38.902 0 70.552-31.649 70.552-70.553 0-38.902-31.649-70.552-70.552-70.552zm5.387 89.845c-10.638 0-19.293-8.654-19.293-19.293 0-10.638 8.655-19.292 19.293-19.292s19.292 8.654 19.292 19.292c0 10.639-8.654 19.293-19.292 19.293zm60.004 0c-10.638 0-19.293-8.654-19.293-19.293 0-10.638 8.655-19.292 19.293-19.292s19.292 8.654 19.292 19.292c0 10.639-8.655 19.293-19.292 19.293zm60.003 0c-10.638 0-19.292-8.654-19.292-19.293 0-10.638 8.655-19.292 19.292-19.292 10.638 0 19.293 8.654 19.293 19.292 0 10.639-8.655 19.293-19.293 19.293zm60.004 0c-10.638 0-19.292-8.654-19.292-19.293 0-10.638 8.655-19.292 19.292-19.292 10.639 0 19.293 8.654 19.293 19.292 0 10.639-8.654 19.293-19.293 19.293zm60.004 0c-10.639 0-19.293-8.654-19.293-19.293 0-10.638 8.654-19.292 19.293-19.292s19.293 8.654 19.293 19.292c0 10.639-8.654 19.293-19.293 19.293zm60.004 0c-10.639 0-19.293-8.654-19.293-19.293 0-10.638 8.654-19.292 19.293-19.292 10.638 0 19.292 8.654 19.292 19.292 0 10.639-8.654 19.293-19.292 19.293zm60.004 0c-10.639 0-19.293-8.654-19.293-19.293 0-10.638 8.654-19.292 19.293-19.292 10.638 0 19.292 8.654 19.292 19.292 0 10.639-8.654 19.293-19.292 19.293z" />
  <path d="m275.966 290.615h122.722v50.206h-122.722z" />
  <path d="m126.325 64.603c0 21.384 13.98 39.554 33.276 45.879v28.813h30v-28.813c19.296-6.325 33.276-24.495 33.276-45.879v-34.603h250.419v-30h-434.665v30h87.694z" />
</svg>