<?xml version="1.0" encoding="utf-8"?>
<svg xmlns="http://www.w3.org/2000/svg" height="24px" viewBox="0 -47 433.839 433" width="24px" fill="#7c7979">
  <g>
    <path d="m105.210938 154.808594h-4.246094l2.125 6.777344zm0 0" data-original="#000000" class="active-path" />
    <path d="m146.378906 153.691406h-3.925781l-13.15625 46.363282c-.769531 2.722656-3.105469 4.710937-5.917969 5.039062-2.808594.332031-5.539062-1.0625-6.921875-3.53125l-13.132812-23.449219h-.332031l-12.046876 23.246094c-1.328124 2.574219-4.113281 4.0625-6.992187 3.742187-2.882813-.324218-5.265625-2.386718-6-5.195312l-12.046875-46.214844h-4.980469c-8.742187 0-17.078125 3.699219-22.941406 10.183594-5.863281 6.488281-8.703125 15.152344-7.824219 23.847656.023438.238282.035156.472656.035156.707032v65.179687l146.902344-.015625v-65.167969c0-.234375.011719-.472656.035156-.707031.878907-8.695312-1.960937-17.359375-7.820312-23.84375-5.863281-6.484375-14.195312-10.183594-22.933594-10.183594zm0 0" data-original="#000000" class="active-path" />
    <path d="m102.371094 113.703125c16.285156-.015625 29.480468-13.207031 29.5-29.492187v-14.601563c.0625-10.578125-5.546875-20.378906-14.699219-25.683594-9.148437-5.308593-20.441406-5.308593-29.59375 0-9.148437 5.304688-14.757813 15.105469-14.695313 25.683594v14.601563c.015626 16.277343 13.207032 29.472656 29.488282 29.492187zm0 0" data-original="#000000" class="active-path" />
    <path d="m410.839844 56.121094h-19.261719v204.1875c-.019531 20.425781-16.574219 36.976562-37 37h-298.878906v19.257812c.015625 12.695313 10.304687 22.984375 23 23h332.140625c12.695312-.015625 22.984375-10.304687 23-23v-237.445312c-.015625-12.699219-10.304688-22.984375-23-23zm0 0" data-original="#000000" class="active-path" />
    <path d="m377.578125 260.304688v-236.886719c-.011719-12.695313-10.300781-22.984375-23-23h-331.578125c-12.695312.015625-22.984375 10.304687-23 23v236.890625c.015625 12.695312 10.304688 22.984375 23 23h331.582031c12.695313-.015625 22.984375-10.304688 22.996094-23.003906zm-158.378906-179.722657h66.84375c3.863281 0 7 3.132813 7 7 0 3.863281-3.136719 7-7 7h-66.84375c-3.863281 0-7-3.136719-7-7 0-3.867187 3.136719-7 7-7zm-160.324219-10.96875c-.074219-15.589843 8.199219-30.027343 21.6875-37.84375 13.488281-7.816406 30.128906-7.816406 43.617188 0 13.488281 7.816407 21.761718 22.253907 21.683593 37.84375v14.597657c-.113281 23.941406-19.550781 43.289062-43.492187 43.289062s-43.378906-19.347656-43.496094-43.289062zm132.222656 119.152344v71.828125c0 3.863281-3.132812 7-7 7l-160.902344.019531c-3.863281 0-7-3.136719-7-7v-71.847656c-1.167968-12.582031 3.015626-25.074219 11.53125-34.414063 8.511719-9.339843 20.5625-14.660156 33.199219-14.660156h10.394531c3.183594 0 5.96875 2.152344 6.773438 5.234375l8.8125 33.808594 4.289062-8.28125-6.433593-20.546875c-.667969-2.128906-.28125-4.441406 1.039062-6.238281 1.316407-1.796875 3.410157-2.855469 5.640625-2.855469h23.296875c2.230469 0 4.324219 1.058594 5.644531 2.855469 1.316407 1.796875 1.703126 4.109375 1.039063 6.238281l-6.402344 20.429688 5.414063 9.671874 9.996094-35.226562c.855468-3.011719 3.605468-5.089844 6.734374-5.089844h9.214844c12.636719 0 24.6875 5.324219 33.195313 14.664063 8.511719 9.339843 12.695312 21.832031 11.523437 34.414062zm154.941406 28.359375h-126.839843c-3.863281 0-7-3.136719-7-7 0-3.867188 3.136719-7 7-7h126.84375c3.863281 0 7 3.132812 7 7 0 3.863281-3.136719 7-7 7zm0-61.273438h-126.839843c-3.863281 0-7-3.132812-7-7 0-3.867187 3.136719-7 7-7h126.84375c3.863281 0 7 3.132813 7 7 0 3.867188-3.136719 7-7 7zm0 0" data-original="#000000" class="active-path" />
  </g>
</svg>