<?xml version="1.0" encoding="utf-8"?>
<svg xmlns="http://www.w3.org/2000/svg" height="24px" viewBox="-14 0 465 465.33299" width="24px" fill="#7c7979">
  <g>
    <path d="m181.175781 221.324219v17.601562c0 20.429688 16.5625 36.992188 36.992188 36.992188 20.429687 0 36.992187-16.5625 36.992187-36.992188v-17.601562c0-20.429688-16.5625-36.992188-36.992187-36.992188-20.429688 0-36.992188 16.5625-36.992188 36.992188zm0 0" data-original="#000000" class="active-path" />
    <path d="m334.582031 181.242188v13.816406c0 15.214844 12.332031 27.546875 27.546875 27.546875 15.210938 0 27.542969-12.332031 27.542969-27.546875v-13.816406c0-15.210938-12.332031-27.546876-27.542969-27.546876-15.214844 0-27.546875 12.335938-27.546875 27.546876zm0 0" data-original="#000000" class="active-path" />
    <path d="m72.6875 263.203125h4.949219l2.144531-6.28125-9.238281-.035156zm0 0" data-original="#000000" class="active-path" />
    <path d="m71.621094 383.355469 4.039062 2.660156 3.859375-2.605469-3.949219-53.800781zm0 0" data-original="#000000" class="active-path" />
    <path d="m61.042969 272.453125-6.144531-18.097656h-25.5c-16.136719.019531-29.210938 13.089843-29.230469 29.226562v80.710938h58.816406l6.425781-87.46875c-2.054687-.703125-3.667968-2.316407-4.367187-4.371094zm0 0" data-original="#000000" class="active-path" />
    <path d="m359.546875 383.355469 4.039063 2.660156 3.859374-2.605469-3.953124-53.800781zm0 0" data-original="#000000" class="active-path" />
    <path d="m275.230469 312.515625h-31.378907l-8.3125 24.363281c-.742187 2.167969-2.503906 3.835938-4.714843 4.457032l8.125 95.945312h75.417969v-85.632812c-.027344-21.601563-17.535157-39.109376-39.136719-39.132813zm0 0" data-original="#000000" class="active-path" />
    <path d="m348.964844 272.453125-6.144532-18.097656h-25.5c-16.136718.019531-29.210937 13.09375-29.230468 29.230469v16.515624c23.648437 5.929688 40.242187 27.167969 40.277344 51.550782v12.640625h18.539062l6.425781-87.46875c-2.054687-.703125-3.664062-2.316407-4.367187-4.371094zm0 0" data-original="#000000" class="active-path" />
    <path d="m360.609375 263.203125h4.949219l2.144531-6.28125-9.238281-.035156zm0 0" data-original="#000000" class="active-path" />
    <path d="m148.242188 300.097656v-16.515625c-.019532-16.136719-13.09375-29.210937-29.230469-29.230469h-23.5625l-6.183594 18.113282c-.601563 1.761718-1.882813 3.210937-3.5625 4.027344l6.449219 87.796874h15.8125v-12.640624c.035156-24.378907 16.628906-45.621094 40.277344-51.550782zm0 0" data-original="#000000" class="active-path" />
    <path d="m406.9375 254.351562h-23.566406l-6.179688 18.113282c-.601562 1.761718-1.882812 3.210937-3.5625 4.027344l6.449219 87.796874h56.089844v-80.710937c-.019531-16.132813-13.09375-29.207031-29.230469-29.226563zm0 0" data-original="#000000" class="active-path" />
    <path d="m203.21875 336.867188-8.269531-24.351563h-33.847657c-21.601562.023437-39.109374 17.53125-39.136718 39.136719v85.628906h78.894531l8.109375-95.734375c-2.652344-.328125-4.886719-2.148437-5.75-4.679687zm0 0" data-original="#000000" class="active-path" />
    <path d="m212.929688 460.65625 7.105468 4.675781 6.847656-4.621093-6.976562-82.40625zm0 0" data-original="#000000" class="active-path" />
    <path d="m214.863281 327.617188h9.042969l4.035156-11.820313-17.113281-.0625zm0 0" data-original="#000000" class="active-path" />
    <path d="m74.203125 222.605469c15.207031-.019531 27.527344-12.339844 27.546875-27.546875v-13.816406c0-15.210938-12.332031-27.546876-27.546875-27.546876-15.210937 0-27.542969 12.335938-27.542969 27.546876v13.816406c.015625 15.207031 12.339844 27.527344 27.542969 27.546875zm0 0" data-original="#000000" class="active-path" />
    <path d="m133.785156 137.347656c2.277344 1.21875 3.699219 3.589844 3.699219 6.171875v13.757813l17.292969-10.839844c1.355468-.855469 2.964844-1.214844 4.558594-1.023438 2.929687.351563 5.878906.523438 8.832031.523438 36.84375-.019531 67.898437-27.503906 72.390625-64.074219 4.492187-36.570312-18.988282-70.753906-54.734375-79.6875-35.75-8.929687-72.546875 10.1875-85.785157 44.574219-13.238281 34.386719 1.238282 73.25 33.746094 90.59375zm67.304688-55.910156c0 3.863281-3.132813 7-7 7h-58.386719c-3.863281 0-7-3.136719-7-7 0-3.867188 3.136719-7 7-7h58.386719c3.867187 0 7 3.132812 7 7zm-65.804688-34.828125h38.355469c3.863281 0 7 3.132813 7 7s-3.136719 7-7 7h-38.355469c-3.867187 0-7-3.132813-7-7s3.132813-7 7-7zm0 0" data-original="#000000" class="active-path" />
    <path d="m318.167969 109.125c1.738281 0 3.472656-.101562 5.199219-.308594 1.589843-.195312 3.199218.164063 4.558593 1.019532l6.789063 4.257812v-3.859375c0-2.582031 1.421875-4.953125 3.699218-6.171875 19.164063-10.222656 27.695313-33.132812 19.890626-53.402344-7.804688-20.269531-29.496094-31.535156-50.570313-26.265625-21.070313 5.265625-34.90625 25.417969-32.253906 46.976563 2.65625 21.558594 20.964843 37.753906 42.6875 37.753906zm27.550781-37.6875c0 3.863281-3.136719 7-7 7h-36.492188c-3.867187 0-7-3.136719-7-7 0-3.867188 3.132813-7 7-7h36.492188c3.863281 0 7 3.132812 7 7zm-43.753906-24.390625h23.972656c3.867188 0 7 3.132813 7 7 0 3.863281-3.132812 7-7 7h-23.972656c-3.863282 0-7-3.136719-7-7 0-3.867187 3.136718-7 7-7zm0 0" data-original="#000000" class="active-path" />
  </g>
</svg>