<?xml version="1.0" encoding="utf-8"?>
<svg xmlns="http://www.w3.org/2000/svg" height="24px" viewBox="0 0 512 512" width="24px" fill="#7c7979">
  <g>
    <path d="m512 179.199219v-170.664063c0-4.710937-3.824219-8.535156-8.535156-8.535156h-494.929688c-4.710937 0-8.535156 3.824219-8.535156 8.535156v170.664063zm-145.074219-81.066407c0-1.441406.117188-2.851562.210938-4.265624h-17.277344c-4.710937 0-8.535156-3.824219-8.535156-8.535157 0-4.710937 3.824219-8.53125 8.535156-8.53125h20.804687c8.8125-24.816406 32.460938-42.667969 60.261719-42.667969 12.269531 0 24.183594 3.480469 34.472657 10.070313 3.96875 2.542969 5.128906 7.824219 2.585937 11.785156-2.542969 3.96875-7.816406 5.136719-11.785156 2.585938-7.535157-4.824219-16.273438-7.375-25.265625-7.375-18.191406 0-33.964844 10.429687-41.753906 25.601562h46.019531c4.710937 0 8.535156 3.820313 8.535156 8.53125 0 4.710938-3.824219 8.535157-8.535156 8.535157h-50.984375c-.128906 1.40625-.214844 2.824218-.214844 4.265624 0 1.441407.085938 2.859376.214844 4.265626h50.984375c4.710937 0 8.535156 3.824218 8.535156 8.535156 0 4.710937-3.824219 8.53125-8.535156 8.53125h-46.019531c7.78125 15.175781 23.5625 25.601562 41.753906 25.601562 8.890625 0 17.542968-2.492187 25.011718-7.210937 3.984376-2.507813 9.25-1.3125 11.765626 2.664062 2.519531 3.984375 1.324218 9.25-2.660157 11.765625-10.199219 6.445313-22 9.847656-34.125 9.847656-27.800781 0-51.457031-17.851562-60.261719-42.667968h-20.804687c-4.710937 0-8.535156-3.820313-8.535156-8.53125 0-4.710938 3.824219-8.535156 8.535156-8.535156h17.277344c-.09375-1.414063-.210938-2.824219-.210938-4.265626zm-145.058593 0c0-1.441406.117187-2.851562.210937-4.265624h-17.277344c-4.710937 0-8.535156-3.824219-8.535156-8.535157 0-4.710937 3.824219-8.53125 8.535156-8.53125h20.804688c8.8125-24.816406 32.460937-42.667969 60.261719-42.667969 12.261718 0 24.183593 3.480469 34.472656 10.070313 3.96875 2.542969 5.128906 7.816406 2.585937 11.785156s-7.824219 5.136719-11.785156 2.585938c-7.53125-4.824219-16.269531-7.375-25.265625-7.375-18.191406 0-33.960938 10.429687-41.753906 25.601562h46.019531c4.710937 0 8.535156 3.820313 8.535156 8.53125 0 4.710938-3.824219 8.535157-8.535156 8.535157h-50.984375c-.128906 1.40625-.214844 2.824218-.214844 4.265624 0 1.441407.085938 2.859376.214844 4.265626h50.984375c4.710937 0 8.535156 3.824218 8.535156 8.535156 0 4.710937-3.824219 8.53125-8.535156 8.53125h-46.019531c7.78125 15.175781 23.5625 25.601562 41.753906 25.601562 8.890625 0 17.542969-2.492187 25.011719-7.210937 3.984375-2.507813 9.25-1.3125 11.765625 2.664062 2.519531 3.984375 1.324218 9.25-2.660156 11.765625-10.199219 6.445313-22 9.847656-34.125 9.847656-27.800782 0-51.457032-17.851562-60.261719-42.667968h-20.804688c-4.710937 0-8.535156-3.820313-8.535156-8.53125 0-4.710938 3.824219-8.535156 8.535156-8.535156h17.277344c-.09375-1.414063-.210937-2.824219-.210937-4.265626zm0 0" data-original="#000000" class="active-path" />
    <path d="m142.933594 238.933594h-81.074219c-1.179687 0-2.132813.957031-2.132813 2.132812v81.074219c0 1.179687.953126 2.132813 2.132813 2.132813h81.074219c1.175781 0 2.132812-.953126 2.132812-2.132813v-81.074219c0-1.175781-.957031-2.132812-2.132812-2.132812zm-23.46875 51.199218h-8.53125v8.535157c0 4.710937-3.824219 8.53125-8.535156 8.53125-4.707032 0-8.53125-3.820313-8.53125-8.53125v-8.535157h-8.535157c-4.710937 0-8.53125-3.824218-8.53125-8.53125 0-4.710937 3.820313-8.535156 8.53125-8.535156h8.535157v-8.53125c0-4.710937 3.824218-8.535156 8.53125-8.535156 4.710937 0 8.535156 3.824219 8.535156 8.535156v8.53125h8.53125c4.710937 0 8.535156 3.824219 8.535156 8.535156 0 4.707032-3.824219 8.53125-8.535156 8.53125zm0 0" data-original="#000000" class="active-path" />
    <path d="m288 238.933594h-81.074219c-1.179687 0-2.132812.957031-2.132812 2.132812v81.074219c0 1.179687.953125 2.132813 2.132812 2.132813h81.074219c1.175781 0 2.132812-.953126 2.132812-2.132813v-81.074219c0-1.175781-.957031-2.132812-2.132812-2.132812zm-17.433594 53.699218c3.335938 3.335938 3.335938 8.730469 0 12.066407-1.664062 1.664062-3.847656 2.5-6.03125 2.5-2.1875 0-4.371094-.835938-6.035156-2.5l-11.035156-11.03125-11.03125 11.03125c-1.664063 1.664062-3.847656 2.5-6.035156 2.5-2.183594 0-4.367188-.835938-6.03125-2.5-3.335938-3.335938-3.335938-8.730469 0-12.066407l11.035156-11.03125-11.035156-11.035156c-3.335938-3.335937-3.335938-8.730468 0-12.066406 3.335937-3.335938 8.730468-3.335938 12.066406 0l11.03125 11.035156 11.035156-11.035156c3.335938-3.335938 8.730469-3.335938 12.066406 0 3.335938 3.335938 3.335938 8.730469 0 12.066406l-11.035156 11.035156zm0 0" data-original="#000000" class="active-path" />
    <path d="m450.132812 238.933594h-98.140624c-1.179688 0-2.132813.957031-2.132813 2.132812v209.074219c0 1.179687.953125 2.132813 2.132813 2.132813h98.140624c1.179688 0 2.132813-.953126 2.132813-2.132813v-209.074219c0-1.175781-.953125-2.132812-2.132813-2.132812zm-23.464843 136.53125h-51.203125c-4.707032 0-8.53125-3.820313-8.53125-8.53125 0-4.710938 3.824218-8.535156 8.53125-8.535156h51.203125c4.710937 0 8.53125 3.824218 8.53125 8.535156 0 4.710937-3.820313 8.53125-8.53125 8.53125zm0-34.132813h-51.203125c-4.707032 0-8.53125-3.820312-8.53125-8.53125 0-4.710937 3.824218-8.535156 8.53125-8.535156h51.203125c4.710937 0 8.53125 3.824219 8.53125 8.535156 0 4.710938-3.820313 8.53125-8.53125 8.53125zm0 0" data-original="#000000" class="active-path" />
    <path d="m0 196.265625v307.199219c0 4.710937 3.824219 8.535156 8.535156 8.535156h494.929688c4.710937 0 8.535156-3.824219 8.535156-8.535156v-307.199219zm162.132812 253.867187c0 10.582032-8.609374 19.199219-19.199218 19.199219h-81.074219c-10.582031 0-19.203125-8.609375-19.203125-19.199219v-72.542968c0-10.578125 8.613281-19.199219 19.203125-19.199219h81.074219c10.582031 0 19.199218 8.609375 19.199218 19.199219zm0-128c0 10.582032-8.609374 19.199219-19.199218 19.199219h-81.074219c-10.582031 0-19.203125-8.609375-19.203125-19.199219v-81.074218c0-10.582032 8.613281-19.199219 19.203125-19.199219h81.074219c10.582031 0 19.199218 8.609375 19.199218 19.199219zm145.066407 128c0 10.582032-8.609375 19.199219-19.199219 19.199219h-81.074219c-10.582031 0-19.199219-8.609375-19.199219-19.199219v-72.542968c0-10.578125 8.609376-19.199219 19.199219-19.199219h81.074219c10.582031 0 19.199219 8.609375 19.199219 19.199219zm0-128c0 10.582032-8.609375 19.199219-19.199219 19.199219h-81.074219c-10.582031 0-19.199219-8.609375-19.199219-19.199219v-81.074218c0-10.582032 8.609376-19.199219 19.199219-19.199219h81.074219c10.582031 0 19.199219 8.609375 19.199219 19.199219zm162.132812 128c0 10.582032-8.609375 19.199219-19.199219 19.199219h-98.140624c-10.582032 0-19.199219-8.609375-19.199219-19.199219v-209.074218c0-10.582032 8.609375-19.199219 19.199219-19.199219h98.140624c10.582032 0 19.199219 8.609375 19.199219 19.199219zm0 0" data-original="#000000" class="active-path" />
    <path d="m142.933594 375.464844h-81.074219c-1.179687 0-2.132813.957031-2.132813 2.136718v72.539063c0 1.179687.953126 2.132813 2.132813 2.132813h81.074219c1.175781 0 2.132812-.953126 2.132812-2.132813v-72.539063c0-1.179687-.957031-2.136718-2.132812-2.136718zm-23.46875 51.203125h-34.132813c-4.710937 0-8.53125-3.824219-8.53125-8.535157 0-4.710937 3.820313-8.53125 8.53125-8.53125h34.132813c4.710937 0 8.535156 3.820313 8.535156 8.53125 0 4.710938-3.824219 8.535157-8.535156 8.535157zm0 0" data-original="#000000" class="active-path" />
    <path d="m288 375.464844h-81.074219c-1.179687 0-2.132812.957031-2.132812 2.136718v72.539063c0 1.179687.953125 2.132813 2.132812 2.132813h81.074219c1.175781 0 2.132812-.953126 2.132812-2.132813v-72.539063c0-1.179687-.957031-2.136718-2.132812-2.136718zm-24.898438 30.328125-17.070312 25.609375c-1.636719 2.464844-4.351562 3.796875-7.105469 3.796875-1.621093 0-3.269531-.460938-4.726562-1.433594-3.917969-2.609375-4.976563-7.910156-2.367188-11.835937l17.066407-25.609376c2.605468-3.914062 7.914062-4.988281 11.835937-2.363281 3.917969 2.613281 4.976563 7.910157 2.367187 11.835938zm0 0" data-original="#000000" class="active-path" />
  </g>
</svg>