<?xml version="1.0" encoding="utf-8"?>
<svg xmlns="http://www.w3.org/2000/svg" height="32px" viewBox="-1 0 421 421.9" width="32px" fill="#7c7979">
  <g>
    <path d="m249.25 336.5c-7.898438 0-14.300781 6.402344-14.300781 14.300781 0 7.898438 6.402343 14.300781 14.300781 14.300781s14.300781-6.402343 14.300781-14.300781c0-7.898437-6.402343-14.300781-14.300781-14.300781zm0 0" data-original="#000000" class="active-path" />
    <path d="m171.449219 287.300781c7.898437 0 14.300781-6.402343 14.300781-14.300781s-6.402344-14.300781-14.300781-14.300781c-7.898438 0-14.300781 6.402343-14.300781 14.300781s6.402343 14.300781 14.300781 14.300781zm0 0" data-original="#000000" class="active-path" />
    <path d="m30.648438 391.898438c.050781 16.550781 13.453124 29.953124 30 30h299.902343c16.546875-.046876 29.949219-13.449219 30-30v-185.597657h-359.902343zm218.601562-6.699219c-18.945312 0-34.300781-15.355469-34.300781-34.300781 0-18.941407 15.355469-34.296876 34.300781-34.296876s34.300781 15.355469 34.300781 34.296876c-.03125 18.933593-15.371093 34.269531-34.300781 34.300781zm25.300781-137.5c1.871094 1.867187 2.925781 4.40625 2.925781 7.050781s-1.054687 5.183594-2.925781 7.050781l-111 111c-1.875 1.886719-4.4375 2.933594-7.101562 2.898438-2.652344-.011719-5.199219-1.050781-7.097657-2.898438-1.875-1.867187-2.925781-4.40625-2.925781-7.050781s1.050781-5.183594 2.925781-7.050781l111-111c3.929688-3.898438 10.269532-3.898438 14.199219 0zm-103.101562-9.097657c18.945312 0 34.300781 15.355469 34.300781 34.296876 0 18.945312-15.355469 34.300781-34.300781 34.300781-18.941407 0-34.300781-15.355469-34.300781-34.300781.03125-18.929688 15.371093-34.269532 34.300781-34.296876zm0 0" data-original="#000000" class="active-path" />
    <path d="m390.25 90.601562h-46.699219c13.527344-16.578124 16.320313-39.457031 7.179688-58.804687-9.136719-19.347656-28.582031-31.71875-49.980469-31.796875-30.800781 0-57.898438 17.300781-78.398438 50-4.394531 7.027344-8.300781 14.34375-11.703124 21.898438-3.398438-7.554688-7.308594-14.871094-11.699219-21.898438-20.5-32.699219-47.699219-50-78.398438-50-21.398437.078125-40.84375 12.449219-49.984375 31.796875-9.136718 19.347656-6.34375 42.226563 7.183594 58.804687h-47.300781c-16.546875.046876-29.949219 13.449219-30 30v65.796876h419.800781v-65.796876c-.011719-16.566406-13.4375-29.988281-30-30zm-89.5-70.703124c19.199219 0 35.300781 16.203124 35.300781 35.300781 0 19.800781-15.300781 35.300781-34.800781 35.300781h-76.800781c8.902343-23.199219 32.300781-70.601562 76.300781-70.601562zm-215.601562 35.300781c0-19.199219 16.203124-35.300781 35.300781-35.300781 43.902343 0 67.300781 47.402343 76.199219 70.703124h-76.796876c-19.402343 0-34.703124-15.601562-34.703124-35.402343zm0 0" data-original="#000000" class="active-path" />
  </g>
</svg>