<?xml version="1.0" encoding="utf-8"?>
<svg version="1.0" xmlns="http://www.w3.org/2000/svg" fill="#7c7979" width="32" height="32" viewBox="0 0 346.000000 513.000000" preserveAspectRatio="xMidYMid meet">
  <g transform="translate(0.000000,513.000000) scale(0.100000,-0.100000)" stroke="none">
    <path d="M639 4955 c-105 -155 -130 -179 -173 -171 -41 8 -44 12 -147 162 -51 74 -95 134 -98 134 -3 0 -41 -51 -83 -113 l-78 -112 0 -2340 0 -2340 38 55 c55 82 86 110 119 110 44 0 65 -21 159 -158 48 -70 90 -131 94 -135 4 -5 47 49 95 120 115 167 120 173 165 173 44 0 61 -17 155 -155 38 -55 77 -110 86 -123 l18 -23 87 128 c109 158 124 173 167 173 42 0 59 -18 167 -175 45 -66 84 -121 85 -123 2 -2 43 54 91 125 49 70 99 138 111 150 25 25 78 30 103 10 9 -7 58 -73 109 -147 52 -74 95 -136 96 -138 2 -2 48 62 104 141 55 80 108 147 116 151 34 13 73 5 96 -18 13 -13 62 -80 109 -149 65 -96 88 -123 96 -114 7 7 44 58 83 114 l71 102 0 174 0 175 -67 7 c-111 11 -192 33 -288 79 -247 118 -409 321 -491 616 -15 51 -18 100 -18 230 0 150 3 173 27 253 86 281 241 468 485 584 93 45 237 83 315 83 l37 0 0 1238 -1 1237 -22 -30 c-98 -132 -116 -146 -165 -126 -23 10 -57 51 -129 157 -87 128 -99 142 -110 126 -198 -287 -211 -301 -265 -286 -27 8 -49 33 -129 149 -54 77 -101 140 -105 142 -5 1 -43 -48 -84 -109 -105 -157 -125 -178 -165 -178 -18 0 -41 3 -49 6 -9 4 -59 69 -112 145 -52 77 -98 139 -102 139 -4 -1 -47 -60 -97 -132 -105 -154 -129 -175 -177 -162 -28 8 -50 34 -135 157 l-101 148 -93 -136z m687 -890 c65 -27 111 -73 148 -145 49 -99 60 -161 53 -315 -6 -147 -20 -204 -79 -317 l-40 -78 -144 0 -145 0 3 92 3 93 77 12 c43 6 82 14 87 17 5 4 20 32 32 64 18 45 23 78 23 157 1 89 -2 104 -23 139 -38 61 -103 80 -166 50 -49 -23 -80 -76 -129 -220 -99 -294 -184 -387 -355 -388 -63 0 -85 5 -127 26 -127 66 -194 202 -194 392 0 156 39 295 106 383 l25 34 127 -3 127 -3 3 -87 c3 -99 16 -85 -103 -111 -59 -12 -60 -13 -79 -62 -25 -66 -28 -207 -4 -250 36 -68 101 -99 160 -76 44 17 79 76 129 221 92 265 154 349 289 387 53 15 145 10 196 -12z m-801 -1241 c3 -26 9 -53 12 -60 4 -12 77 -14 413 -14 l408 0 7 46 c11 75 10 74 86 74 l69 0 0 -240 0 -240 -69 0 c-76 0 -75 -1 -86 74 l-7 46 -408 0 c-336 0 -409 -2 -413 -14 -3 -7 -9 -34 -12 -60 l-7 -46 -79 0 -79 0 0 240 0 240 79 0 79 0 7 -46z m367 -757 c62 -30 126 -93 157 -156 39 -75 51 -147 51 -298 l0 -143 129 0 129 0 6 48 c12 85 10 82 87 82 l69 0 0 -245 0 -245 -69 0 c-77 0 -74 -3 -86 78 l-7 42 -408 0 -408 0 -19 -57 -20 -58 -71 -3 -72 -3 0 323 c0 343 5 390 51 479 43 85 132 157 223 180 17 5 70 7 117 6 70 -3 96 -8 141 -30z" />
    <path d="M650 1849 c-14 -5 -36 -20 -48 -32 -47 -44 -56 -74 -60 -214 l-4 -133 191 0 191 0 0 108 c-1 158 -16 206 -83 256 -32 24 -145 33 -187 15z" />
    <path d="M2609 2278 c-150 -14 -298 -85 -409 -198 -295 -297 -292 -781 5 -1075 81 -80 151 -125 257 -163 66 -24 86 -27 213 -27 128 0 147 2 222 28 376 129 575 566 438 960 -37 106 -99 203 -180 282 -152 150 -331 213 -546 193z m161 -223 c0 -43 1 -44 38 -51 92 -17 180 -95 206 -185 27 -90 28 -89 -69 -89 l-85 0 -14 34 c-13 32 -41 56 -65 56 -7 0 -11 -33 -11 -90 l0 -89 38 -7 c126 -23 222 -144 222 -280 0 -66 -34 -144 -82 -191 -47 -45 -96 -73 -127 -73 -41 0 -51 -11 -51 -56 l0 -44 -90 0 -90 0 0 45 c0 41 -2 45 -27 51 -127 27 -207 108 -228 233 l-7 41 91 0 c85 0 91 -1 91 -20 0 -24 42 -70 65 -70 12 0 15 15 15 90 l0 90 -27 6 c-69 14 -114 38 -152 79 -155 169 -74 421 152 469 25 6 27 10 27 51 l0 45 90 0 90 0 0 -45z" />
    <path d="M2535 1795 c-49 -48 -19 -155 45 -155 19 0 20 6 20 90 0 84 -1 90 -20 90 -12 0 -32 -11 -45 -25z" />
    <path d="M2770 1360 c0 -57 4 -90 11 -90 22 0 49 22 65 51 20 39 11 82 -23 109 -47 37 -53 29 -53 -70z" />
  </g>
</svg>