<?xml version="1.0" encoding="utf-8"?>
<svg version="1.0" xmlns="http://www.w3.org/2000/svg" width="32" height="32" viewBox="0 0 343.000000 519.000000" fill="#7c7979" preserveAspectRatio="xMidYMid meet">
  <g transform="translate(0.000000,519.000000) scale(0.100000,-0.100000)" stroke="none">
    <path d="M629 4955 c-105 -155 -130 -179 -173 -171 -41 8 -44 12 -147 162 -51 74 -95 134 -98 134 -3 0 -41 -51 -83 -113 l-78 -112 0 -2340 0 -2340 38 55 c55 82 86 110 119 110 44 0 65 -21 159 -158 48 -70 90 -131 94 -135 4 -5 47 49 95 120 115 167 120 173 165 173 44 0 61 -17 155 -155 38 -55 77 -110 86 -123 l18 -23 87 128 c109 158 124 173 167 173 42 0 59 -18 167 -175 45 -66 84 -121 85 -123 2 -2 43 54 91 125 49 70 99 138 111 150 25 25 78 30 103 10 9 -7 58 -73 109 -147 52 -74 95 -136 96 -138 2 -2 48 62 104 141 55 80 108 147 116 151 34 13 73 5 96 -18 13 -13 62 -80 109 -149 65 -96 88 -123 96 -114 7 7 44 58 83 114 l71 102 0 174 0 175 -67 7 c-111 11 -192 33 -288 79 -247 118 -409 321 -491 616 -15 51 -18 100 -18 230 0 150 3 173 27 253 86 281 241 468 485 584 93 45 237 83 315 83 l37 0 0 1238 -1 1237 -22 -30 c-98 -132 -116 -146 -165 -126 -23 10 -57 51 -129 157 -87 128 -99 142 -110 126 -198 -287 -211 -301 -265 -286 -27 8 -49 33 -129 149 -54 77 -101 140 -105 142 -5 1 -43 -48 -84 -109 -105 -157 -125 -178 -165 -178 -18 0 -41 3 -49 6 -9 4 -59 69 -112 145 -52 77 -98 139 -102 139 -4 -1 -47 -60 -97 -132 -105 -154 -129 -175 -177 -162 -28 8 -50 34 -135 157 l-101 148 -93 -136z m843 -378 c64 -31 117 -85 151 -154 39 -78 50 -144 45 -272 -6 -138 -32 -223 -99 -325 l-43 -66 -158 0 -158 0 0 89 c0 102 -8 94 113 106 59 6 70 11 87 36 54 75 72 229 35 304 -27 53 -76 85 -132 85 -97 0 -155 -60 -213 -220 -75 -205 -148 -307 -255 -357 -52 -24 -72 -28 -155 -28 -84 0 -102 3 -151 28 -70 34 -142 109 -177 185 -25 53 -27 66 -27 192 0 159 18 226 88 331 l43 64 153 3 152 3 -3 -88 -3 -88 -89 -14 -88 -14 -22 -46 c-30 -66 -30 -217 0 -257 31 -42 67 -65 111 -71 86 -11 146 48 203 201 115 310 225 410 446 403 74 -2 100 -7 146 -30z m188 -1152 l0 -235 -80 0 c-79 0 -80 0 -86 28 -3 15 -9 41 -13 57 l-7 30 -410 2 -409 2 493 -166 492 -165 0 -88 0 -88 -102 -36 c-57 -20 -281 -99 -498 -176 l-395 -139 170 5 c94 4 280 9 415 13 l244 6 8 40 c18 93 10 85 98 85 l80 0 0 -235 0 -235 -80 0 c-79 0 -80 0 -86 28 -3 15 -9 41 -13 57 l-7 30 -464 0 -464 0 -14 -56 c-15 -64 -24 -69 -133 -69 l-59 0 0 233 0 232 459 155 c253 85 454 158 448 161 -7 4 -172 57 -367 119 -195 61 -397 125 -447 141 l-93 30 0 229 0 230 89 0 90 0 12 -60 12 -60 236 0 c130 0 340 3 467 7 l231 6 12 59 12 58 79 0 80 0 0 -235z m-860 -1480 c0 -47 -1 -85 -2 -86 -2 0 -46 -6 -98 -12 -91 -12 -95 -13 -117 -46 -30 -44 -43 -93 -43 -160 0 -78 18 -127 67 -182 80 -88 190 -123 388 -123 141 0 218 15 303 58 65 33 136 112 152 171 16 57 9 175 -14 231 -17 41 -19 42 -74 48 -31 4 -72 10 -89 13 l-33 5 0 84 0 84 159 0 160 0 29 -52 c52 -91 74 -173 80 -288 5 -127 -7 -196 -54 -289 -64 -129 -196 -225 -371 -273 -108 -29 -373 -31 -478 -4 -281 73 -435 252 -435 505 0 144 39 262 117 359 l34 42 160 0 159 0 0 -85z m860 -1150 l0 -235 -27 0 c-16 0 -51 -3 -80 -6 l-52 -7 -12 62 -13 61 -467 0 -466 0 -12 -60 -12 -60 -90 0 -89 0 0 235 0 235 89 0 90 0 12 -60 12 -60 392 0 c215 0 426 3 467 6 l75 7 12 58 12 59 79 0 80 0 0 -235z" />
    <path d="M2599 2278 c-150 -14 -298 -85 -409 -198 -295 -297 -292 -781 5 -1075 81 -80 151 -125 257 -163 66 -24 86 -27 213 -27 128 0 147 2 222 28 376 129 575 566 438 960 -37 106 -99 203 -180 282 -152 150 -331 213 -546 193z m161 -223 c0 -43 1 -44 38 -51 92 -17 180 -95 206 -185 27 -90 28 -89 -69 -89 l-85 0 -14 34 c-13 32 -41 56 -65 56 -7 0 -11 -33 -11 -90 l0 -89 38 -7 c126 -23 222 -144 222 -280 0 -66 -34 -144 -82 -191 -47 -45 -96 -73 -127 -73 -41 0 -51 -11 -51 -56 l0 -44 -90 0 -90 0 0 45 c0 41 -2 45 -27 51 -127 27 -207 108 -228 233 l-7 41 91 0 c85 0 91 -1 91 -20 0 -24 42 -70 65 -70 12 0 15 15 15 90 l0 90 -27 6 c-69 14 -114 38 -152 79 -155 169 -74 421 152 469 25 6 27 10 27 51 l0 45 90 0 90 0 0 -45z" />
    <path d="M2525 1795 c-49 -48 -19 -155 45 -155 19 0 20 6 20 90 0 84 -1 90 -20 90 -12 0 -32 -11 -45 -25z" />
    <path d="M2760 1360 c0 -57 4 -90 11 -90 22 0 49 22 65 51 20 39 11 82 -23 109 -47 37 -53 29 -53 -70z" />
  </g>
</svg>