<?xml version="1.0" encoding="utf-8"?>
<svg xmlns="http://www.w3.org/2000/svg" height="32px" viewBox="-66 0 436 436.96" width="32px" fill="#7c7979">
  <g>
    <path d="m304.480469 306.976562c.113281-18.390624-7.65625-35.945312-21.34375-48.222656-11.601563-10.386718-26.597657-16.171875-42.167969-16.273437h-.488281c-35.347657-.125-64.101563 28.425781-64.226563 63.773437-.128906 35.34375 28.425782 64.101563 63.769532 64.226563 16.980468.164062 33.324218-6.445313 45.421874-18.359375 12.097657-11.917969 18.945313-28.164063 19.035157-45.144532zm-104 7.503907h-16v-16h16zm72 8c0 13.253906-10.746094 24-24 24v8h-16v-8c-13.253907 0-24-10.746094-24-24h16c0 4.417969 3.582031 8 8 8v-16c-13.253907 0-24-10.746094-24-24 0-13.253907 10.746093-24 24-24v-8h16v8c13.253906 0 24 10.746093 24 24h-16c0-4.417969-3.582031-8-8-8v16c13.253906 0 24 10.746093 24 24zm8-24h16v16h-16zm0 0" data-original="#000000" class="active-path" />
    <path d="m248.480469 330.480469c4.417969 0 8-3.582031 8-8s-3.582031-8-8-8zm0 0" data-original="#000000" class="active-path" />
    <path d="m224.480469 290.480469c0 4.417969 3.582031 8 8 8v-16c-4.417969 0-8 3.582031-8 8zm0 0" data-original="#000000" class="active-path" />
    <path d="m183.472656 362.609375c-22.625-22.976563-29.242187-57.289063-16.785156-87.03125 12.453125-29.742187 41.546875-49.097656 73.792969-49.097656v-214.761719l-8.425781 11.488281c-1.507813 2.058594-3.902344 3.273438-6.453126 3.273438-2.550781-.003907-4.945312-1.222657-6.449218-3.28125l-16.914063-23.199219-16.957031 23.207031c-1.511719 2.066407-3.921875 3.28125-6.480469 3.273438-2.554687 0-4.949219-1.21875-6.457031-3.28125l-16.902344-23.121094-16.898437 23.121094c-1.574219 1.957031-3.949219 3.089843-6.457031 3.089843-2.511719 0-4.886719-1.132812-6.460938-3.089843l-16.90625-23.121094-16.902344 23.121094c-1.503906 2.058593-3.898437 3.277343-6.449218 3.28125-2.550782 0-4.949219-1.214844-6.457032-3.273438l-16.964844-23.1992185-16.921874 23.1992185c-1.503907 2.0625-3.90625 3.28125-6.460938 3.28125-2.550781 0-4.953125-1.21875-6.457031-3.28125l-16.90625-23.128906-14.71875 20.128906v404.863281l8.253906-11.308593c1.578125-1.957031 3.953125-3.09375 6.460937-3.09375 2.511719 0 4.886719 1.136719 6.460938 3.09375l16.902344 23.117187 16.90625-23.152344c1.503906-2.058593 3.898437-3.273437 6.445312-3.277343 2.550782-.003907 4.949219 1.214843 6.457032 3.269531l16.96875 23.203125 16.910156-23.203125c1.578125-1.953125 3.953125-3.089844 6.460937-3.089844 2.511719 0 4.886719 1.136719 6.460938 3.089844l16.910156 23.160156 16.898437-23.152344c1.574219-1.953124 3.953126-3.089843 6.464844-3.089843 2.511719 0 4.886719 1.136719 6.460938 3.089843l16.914062 23.203126 16.976563-23.203126c1.511719-2.042968 3.902343-3.25 6.445312-3.246093 2.554688 0 4.953125 1.21875 6.457031 3.28125l16.914063 23.199219 14.871094-20.296876v-30.183593h-.632813c-21.222656-.117188-41.523437-8.710938-56.375-23.871094zm-126.992187-104.128906h-24v-16h24zm0-48h-24v-16h24zm0-48h-24v-16h24zm0-48h-24v-16h24zm24-64h80v16h-80zm-8 48h136v16h-136zm0 48h136v16h-136zm80 112h-80v-16h80zm-80-48v-16h136v16zm0 0" data-original="#000000" class="active-path" />
  </g>
</svg>