<?xml version="1.0" encoding="utf-8"?>
<svg version="1.0" xmlns="http://www.w3.org/2000/svg" fill="#7c7979" width="32" height="32" viewBox="0 0 340.000000 519.000000" preserveAspectRatio="xMidYMid meet">
  <g transform="translate(0.000000,519.000000) scale(0.100000,-0.100000)" stroke="none">
    <path d="M619 4985 c-105 -155 -130 -179 -173 -171 -41 8 -44 12 -147 162 -51 74 -95 134 -98 134 -3 0 -41 -51 -83 -113 l-78 -112 0 -2340 0 -2340 38 55 c55 82 86 110 119 110 44 0 65 -21 159 -158 48 -70 90 -131 94 -135 4 -5 47 49 95 120 115 167 120 173 165 173 44 0 61 -17 155 -155 38 -55 77 -110 86 -123 l18 -23 87 128 c109 158 124 173 167 173 42 0 59 -18 167 -175 45 -66 84 -121 85 -123 2 -2 43 54 91 125 49 70 99 138 111 150 25 25 78 30 103 10 9 -7 58 -73 109 -147 52 -74 95 -136 96 -138 2 -2 48 62 104 141 55 80 108 147 116 151 34 13 73 5 96 -18 13 -13 62 -80 109 -149 65 -96 88 -123 96 -114 7 7 44 58 83 114 l71 102 0 174 0 175 -67 7 c-111 11 -192 33 -288 79 -247 118 -409 321 -491 616 -15 51 -18 100 -18 230 0 150 3 173 27 253 86 281 241 468 485 584 93 45 237 83 315 83 l37 0 0 1238 -1 1237 -22 -30 c-98 -132 -116 -146 -165 -126 -23 10 -57 51 -129 157 -87 128 -99 142 -110 126 -198 -287 -211 -301 -265 -286 -27 8 -49 33 -129 149 -54 77 -101 140 -105 142 -5 1 -43 -48 -84 -109 -105 -157 -125 -178 -165 -178 -18 0 -41 3 -49 6 -9 4 -59 69 -112 145 -52 77 -98 139 -102 139 -4 -1 -47 -60 -97 -132 -105 -154 -129 -175 -177 -162 -28 8 -50 34 -135 157 l-101 148 -93 -136z m-255 -662 c3 -10 10 -46 17 -80 l12 -63 552 0 553 0 5 23 c3 12 11 48 17 80 l11 57 95 0 94 0 0 -320 0 -320 -94 0 c-106 0 -93 -11 -116 103 l-11 57 -554 0 -554 0 -11 -57 c-22 -115 -8 -103 -115 -103 l-95 0 0 320 0 320 94 0 c82 0 95 -2 100 -17z m431 -1065 c153 -33 279 -157 336 -333 19 -61 23 -97 27 -277 l4 -208 168 0 169 0 11 58 c6 31 13 69 16 85 l6 27 94 0 94 0 0 -325 0 -325 -94 0 c-106 0 -93 -11 -116 103 l-11 57 -554 0 -554 0 -11 -57 c-22 -115 -8 -103 -115 -103 l-95 0 0 423 c0 465 4 505 60 621 101 212 314 308 565 254z m-427 -1785 c6 -27 14 -65 17 -85 l7 -38 553 0 554 0 11 58 c6 31 13 69 16 85 l6 27 94 0 94 0 0 -325 0 -325 -94 0 -94 0 -10 48 c-6 26 -14 64 -17 85 l-7 37 -553 0 -553 0 -7 -37 c-3 -21 -11 -59 -17 -85 l-10 -48 -94 0 -94 0 0 325 0 325 94 0 94 0 10 -47z" />
    <path d="M590 2951 c-69 -21 -122 -66 -156 -131 -15 -29 -19 -66 -22 -207 l-4 -173 257 0 258 0 -5 168 c-5 188 -14 222 -76 285 -55 56 -170 83 -252 58z" />
    <path d="M2589 2308 c-150 -14 -298 -85 -409 -198 -295 -297 -292 -781 5 -1075 81 -80 151 -125 257 -163 66 -24 86 -27 213 -27 128 0 147 2 222 28 376 129 575 566 438 960 -37 106 -99 203 -180 282 -152 150 -331 213 -546 193z m161 -223 c0 -43 1 -44 38 -51 92 -17 180 -95 206 -185 27 -90 28 -89 -69 -89 l-85 0 -14 34 c-13 32 -41 56 -65 56 -7 0 -11 -33 -11 -90 l0 -89 38 -7 c126 -23 222 -144 222 -280 0 -66 -34 -144 -82 -191 -47 -45 -96 -73 -127 -73 -41 0 -51 -11 -51 -56 l0 -44 -90 0 -90 0 0 45 c0 41 -2 45 -27 51 -127 27 -207 108 -228 233 l-7 41 91 0 c85 0 91 -1 91 -20 0 -24 42 -70 65 -70 12 0 15 15 15 90 l0 90 -27 6 c-69 14 -114 38 -152 79 -155 169 -74 421 152 469 25 6 27 10 27 51 l0 45 90 0 90 0 0 -45z" />
    <path d="M2515 1825 c-49 -48 -19 -155 45 -155 19 0 20 6 20 90 0 84 -1 90 -20 90 -12 0 -32 -11 -45 -25z" />
    <path d="M2750 1390 c0 -57 4 -90 11 -90 22 0 49 22 65 51 20 39 11 82 -23 109 -47 37 -53 29 -53 -70z" />
  </g>
</svg>