<?xml version="1.0" encoding="utf-8"?>
<svg version="1.0" xmlns="http://www.w3.org/2000/svg" fill="#7c7979" width="24" height="24" viewBox="0 0 343.000000 511.000000" preserveAspectRatio="xMidYMid meet">
  <g transform="translate(0.000000,511.000000) scale(0.100000,-0.100000)" stroke="none">
    <path d="M2159 4933 c-109 -159 -133 -180 -181 -167 -27 8 -49 33 -129 149 -53 77 -101 140 -105 142 -5 1 -43 -48 -84 -109 -105 -157 -125 -178 -165 -178 -18 0 -41 3 -50 6 -9 4 -59 69 -111 145 -53 77 -98 139 -102 139 -4 -1 -47 -60 -97 -132 -105 -154 -129 -175 -177 -162 -27 8 -49 33 -129 149 -53 77 -101 141 -106 142 -5 2 -49 -55 -97 -127 -101 -149 -127 -174 -170 -166 -41 8 -44 12 -147 162 -51 74 -95 134 -98 134 -3 0 -41 -51 -83 -113 l-78 -112 0 -2340 0 -2340 38 55 c55 82 86 110 119 110 44 0 65 -21 159 -158 48 -70 90 -131 94 -135 4 -5 47 49 95 120 115 167 120 173 165 173 44 0 61 -17 155 -155 38 -55 77 -110 86 -123 l18 -23 87 128 c106 153 124 173 161 173 43 0 66 -22 140 -128 36 -53 79 -114 94 -135 l27 -38 88 128 c49 70 99 138 111 150 25 25 78 30 103 10 9 -7 58 -73 109 -147 52 -74 95 -136 96 -138 2 -2 48 62 104 141 55 80 108 147 116 151 36 13 72 5 97 -21 15 -16 65 -83 111 -151 l85 -123 25 33 c13 18 49 70 80 115 l57 82 0 175 0 174 -67 7 c-111 11 -192 33 -288 79 -247 118 -409 321 -491 616 -15 51 -18 100 -18 230 0 150 3 173 27 253 51 166 113 279 215 389 144 155 340 252 555 274 l67 7 0 1236 -1 1236 -22 -30 c-98 -132 -116 -146 -165 -126 -23 10 -52 44 -104 120 -39 58 -84 123 -98 143 l-27 37 -94 -136z m-1469 -402 l0 -90 -70 -7 -70 -7 0 -103 0 -104 409 0 409 0 7 46 c11 75 10 74 86 74 l69 0 0 -240 0 -240 -69 0 c-76 0 -75 -1 -86 74 l-7 46 -409 0 -409 0 0 -104 0 -104 70 -7 70 -7 0 -89 0 -89 -160 0 -160 0 0 520 0 520 160 0 160 0 0 -89z m633 -1047 c97 -33 178 -140 206 -272 16 -78 14 -252 -5 -335 -18 -77 -60 -179 -94 -227 l-22 -31 -136 3 -137 3 -3 91 -3 92 84 12 c97 15 105 23 132 126 30 118 15 226 -40 281 -27 27 -41 33 -76 33 -24 0 -55 -6 -69 -13 -40 -20 -84 -97 -120 -208 -90 -285 -175 -387 -335 -397 -128 -8 -216 39 -282 149 -45 75 -63 155 -63 275 0 118 23 222 69 310 51 99 41 94 190 94 l131 0 0 -89 0 -88 -62 -12 c-35 -7 -71 -14 -81 -17 -25 -8 -45 -53 -58 -133 -26 -169 53 -286 169 -248 48 16 90 85 132 220 18 56 48 136 68 177 43 92 126 179 192 203 59 20 155 21 213 1z m207 -1479 l0 -466 -72 3 -72 3 -8 40 c-4 22 -10 50 -13 63 l-5 22 -410 0 -410 0 -5 -22 c-3 -13 -9 -41 -13 -63 l-8 -40 -72 -3 -72 -3 0 456 0 455 160 0 160 0 0 -89 0 -88 -37 -7 c-21 -3 -53 -6 -71 -6 l-32 0 2 -177 3 -178 143 -3 142 -3 0 201 0 200 90 0 90 0 0 -200 0 -200 163 2 162 3 3 188 2 187 -39 0 c-21 0 -53 3 -70 6 l-31 7 0 88 0 89 160 0 160 0 0 -465z m-752 -652 l-3 -87 -40 -7 c-22 -4 -62 -10 -88 -14 -47 -6 -50 -8 -74 -62 -19 -41 -26 -74 -27 -127 -1 -98 18 -157 71 -216 80 -89 205 -128 377 -117 286 17 419 200 340 467 l-14 48 -63 11 c-35 6 -71 11 -80 11 -15 0 -17 13 -17 90 l0 90 140 0 140 0 24 -47 c65 -130 94 -342 67 -485 -57 -296 -335 -465 -685 -419 -225 30 -381 146 -457 339 -20 50 -23 76 -23 202 -1 127 2 154 23 218 13 41 41 100 62 133 l39 59 145 0 146 0 -3 -87z" />
    <path d="M2505 2244 c-73 -18 -182 -72 -253 -125 -110 -83 -217 -249 -259 -399 -24 -90 -24 -299 1 -390 74 -272 284 -476 546 -531 88 -19 260 -6 354 26 370 128 567 567 431 958 -54 153 -178 309 -307 385 -108 64 -189 86 -328 89 -86 1 -144 -2 -185 -13z m255 -208 c0 -45 10 -56 51 -56 65 0 169 -97 193 -181 27 -90 28 -89 -69 -89 l-85 0 -14 34 c-13 32 -41 56 -65 56 -7 0 -11 -33 -11 -90 l0 -89 38 -7 c57 -10 104 -38 149 -87 102 -111 95 -286 -15 -390 -45 -41 -74 -56 -144 -71 -26 -6 -28 -10 -28 -51 l0 -45 -90 0 -90 0 0 45 c0 41 -2 45 -27 51 -127 27 -207 108 -228 233 l-7 41 91 0 c85 0 91 -1 91 -20 0 -24 42 -70 65 -70 12 0 15 15 15 90 l0 90 -27 6 c-99 22 -158 65 -199 145 -87 172 7 362 199 403 25 6 27 10 27 51 l0 45 90 0 90 0 0 -44z" />
    <path d="M2525 1775 c-34 -33 -34 -92 0 -129 25 -27 55 -35 55 -13 6 161 5 167 -13 167 -10 0 -29 -11 -42 -25z" />
    <path d="M2760 1340 c0 -96 5 -104 47 -75 29 20 46 80 31 109 -18 35 -40 56 -60 56 -16 0 -18 -9 -18 -90z" />
  </g>
</svg>