<?xml version="1.0" encoding="utf-8"?>
<svg version="1.0" xmlns="http://www.w3.org/2000/svg" fill="#7c7979" width="32" height="32" viewBox="0 0 338.000000 516.000000" preserveAspectRatio="xMidYMid meet">
  <g transform="translate(0.000000,516.000000) scale(0.100000,-0.100000)" stroke="none">
    <path d="M2151 4955 c-156 -229 -169 -229 -318 -13 -52 76 -97 138 -101 138 -4 -1 -41 -51 -82 -112 -105 -157 -125 -178 -165 -178 -18 0 -41 3 -50 6 -9 4 -59 69 -111 145 -53 77 -98 139 -102 139 -4 -1 -47 -60 -97 -132 -105 -154 -129 -175 -177 -162 -27 8 -49 33 -130 149 -53 77 -101 140 -106 140 -6 0 -51 -58 -99 -129 -104 -152 -127 -173 -175 -160 -27 8 -50 34 -131 149 -54 77 -101 141 -105 142 -4 1 -42 -48 -84 -110 l-78 -112 0 -2340 0 -2340 38 55 c55 82 86 110 119 110 44 0 65 -21 159 -158 48 -70 90 -131 94 -135 4 -5 51 54 103 130 53 77 102 145 111 152 24 20 74 16 99 -7 13 -12 63 -80 112 -151 49 -71 92 -128 95 -126 3 2 48 65 100 140 95 139 111 155 152 155 37 0 63 -25 135 -128 36 -53 79 -114 94 -135 l27 -38 88 128 c49 70 99 138 111 150 25 25 78 30 103 10 9 -7 58 -73 109 -147 52 -74 95 -136 96 -138 2 -2 48 62 104 141 55 80 108 147 116 151 64 24 91 2 219 -187 l74 -108 34 48 c19 26 55 78 81 115 l47 67 0 174 0 175 -67 7 c-111 11 -192 33 -288 79 -247 118 -409 321 -491 616 -15 51 -18 100 -18 230 0 150 3 173 27 253 86 281 241 468 485 584 93 45 237 83 315 83 l37 0 0 1238 -1 1237 -22 -30 c-66 -89 -85 -111 -109 -124 -44 -25 -79 -1 -150 103 -34 50 -79 114 -99 143 l-36 52 -92 -134z m-862 -281 c69 -20 141 -90 164 -159 33 -96 16 -257 -36 -345 -47 -80 -47 -80 -184 -80 l-123 0 0 64 0 64 75 7 74 7 26 51 c44 90 29 198 -32 226 -31 14 -95 14 -127 0 -33 -16 -67 -67 -106 -161 -64 -155 -138 -228 -258 -250 -117 -22 -237 29 -296 126 -26 42 -31 59 -34 140 -5 104 14 172 67 250 l32 46 119 0 120 0 0 -59 c0 -66 4 -63 -93 -76 -39 -6 -50 -13 -63 -36 -37 -72 -26 -170 23 -209 28 -22 101 -27 134 -10 26 14 63 75 95 155 37 93 93 175 143 209 77 54 184 69 280 40z m-713 -729 l11 -40 437 4 437 4 -3 -82 -3 -82 -342 -177 -342 -177 122 -3 c67 -2 190 0 274 3 l151 7 7 49 7 49 64 0 64 0 0 -165 0 -165 -64 0 -64 0 -9 38 -9 37 -174 3 c-96 1 -260 -1 -365 -5 l-189 -8 -9 -37 -9 -38 -64 0 -64 0 0 123 0 122 353 177 352 178 -230 -1 c-126 0 -252 -4 -280 -7 l-50 -7 -9 -47 -8 -48 -64 0 -64 0 0 164 c0 186 -5 175 85 172 37 -1 40 -3 51 -41z m884 -1030 l0 -165 -64 0 -64 0 -7 40 -7 40 -364 0 -364 0 -11 -45 -11 -45 -64 0 -64 0 0 165 0 165 64 0 64 0 9 -37 9 -38 114 -3 c63 -2 228 0 366 3 l252 7 6 39 6 39 65 0 65 0 0 -165z m-740 -309 l0 -63 -60 -7 -60 -7 0 -124 0 -125 140 0 140 0 0 140 0 140 80 0 80 0 0 -140 0 -141 137 3 137 3 12 40 11 40 61 3 62 3 0 -166 0 -165 -64 0 -64 0 -7 40 -7 40 -216 -1 c-120 -1 -284 -4 -367 -8 l-149 -6 -9 -37 -9 -38 -64 0 -64 0 0 315 0 314 63 4 c34 2 97 4 140 5 l77 2 0 -64z m435 -682 c94 -25 165 -64 226 -125 67 -67 89 -123 89 -218 -1 -201 -194 -344 -485 -358 -256 -13 -460 77 -532 234 -33 72 -30 183 7 256 59 117 209 205 388 227 86 11 231 3 307 -16z m-357 -866 c2 -32 2 -58 0 -59 -2 0 -39 -6 -83 -12 -73 -11 -80 -14 -98 -44 -10 -18 -21 -56 -23 -85 -11 -110 71 -193 216 -219 96 -17 270 -7 338 19 114 44 169 119 159 217 -6 63 -26 109 -47 112 -8 1 -41 5 -72 8 l-58 6 0 60 0 59 129 0 129 0 25 -42 c88 -150 74 -347 -31 -460 -99 -106 -227 -149 -442 -149 -246 0 -402 70 -478 216 -24 45 -27 60 -27 155 1 120 17 169 81 239 l37 42 121 -3 121 -3 3 -57z" />
    <path d="M804 1770 c-143 -29 -225 -113 -209 -217 13 -89 93 -142 244 -163 157 -21 337 11 407 73 123 107 60 260 -125 303 -61 15 -251 17 -317 4z" />
    <path d="M2496 2265 c-191 -48 -366 -194 -456 -380 -61 -127 -75 -190 -74 -345 1 -123 3 -143 31 -228 41 -123 101 -221 188 -307 81 -80 148 -123 255 -162 68 -25 87 -28 215 -28 128 0 147 2 223 29 326 111 529 468 471 825 -25 157 -102 306 -214 416 -82 81 -153 125 -257 163 -62 22 -93 26 -198 29 -85 1 -144 -2 -184 -12z m254 -209 c0 -45 10 -56 51 -56 65 0 169 -97 193 -181 27 -90 28 -89 -69 -89 l-85 0 -14 34 c-13 32 -41 56 -65 56 -7 0 -11 -33 -11 -89 0 -94 4 -101 51 -101 34 0 93 -36 136 -83 99 -108 95 -283 -9 -384 -47 -45 -96 -73 -127 -73 -41 0 -51 -11 -51 -56 l0 -44 -90 0 -90 0 0 45 c0 41 -2 45 -27 51 -127 27 -207 108 -228 233 l-7 41 91 0 c85 0 91 -1 91 -20 0 -24 42 -70 65 -70 12 0 15 15 15 90 l0 90 -27 6 c-69 14 -114 38 -152 79 -155 169 -74 421 152 469 25 6 27 10 27 51 l0 45 90 0 90 0 0 -44z" />
    <path d="M2515 1795 c-34 -33 -34 -92 0 -129 13 -14 33 -26 45 -26 20 0 21 5 19 90 -1 81 -3 90 -21 90 -10 0 -30 -11 -43 -25z" />
    <path d="M2750 1360 c0 -75 3 -90 15 -90 20 0 65 44 66 65 1 8 2 21 3 28 3 20 -23 66 -43 77 -37 20 -41 13 -41 -80z" />
  </g>
</svg>