<?xml version="1.0" encoding="utf-8"?>
<svg height="24" viewBox="0 0 58 58" width="24" xmlns="http://www.w3.org/2000/svg" fill="#7a8190">
  <g id="Page-1" fill-rule="evenodd">
    <g id="023---Inventory" fill-rule="nonzero">
      <path id="Shape" d="m5 5v14h14v-14zm12 6.5c-.0027556 2.4841391-2.0158609 4.4972444-4.5 4.5-.8456349-.0022576-1.6731779-.2450405-2.386-.7l-1.407 1.407c-.39237889.3789722-1.01608478.3735524-1.40181858-.0121814-.38573379-.3857338-.39115363-1.0094397-.01218142-1.4018186l1.407-1.407c-.45495946-.7128221-.69774238-1.5403651-.7-2.386.00275556-2.48413909 2.0158609-4.49724444 4.5-4.5h3.5c.5522847 0 1 .44771525 1 1z" />
      <path id="Rectangle-path" d="m24 43h10.001v10h-10.001z" />
      <path id="Shape" d="m10 11.5c-.0003398.6567638.2592235 1.2869778.722 1.753 0 0 .01.006.015.01s.005.011.01.015c.7176479.7058091 1.7885927.912387 2.7172758.5241437.9286831-.3882432 1.5339495-1.2955743 1.5357242-2.3021437v-2.5h-2.5c-1.3807119 0-2.5 1.1192881-2.5 2.5z" />
      <path id="Rectangle-path" d="m5 43h10.001v10h-10.001z" />
      <path id="Shape" d="m24 25v10h10v-10zm7.707 3.707-4 4c-.3923789.3789722-1.0160848.3735524-1.4018186-.0121814s-.3911536-1.0094397-.0121814-1.4018186l4-4c.3923789-.3789722 1.0160848-.3735524 1.4018186.0121814s.3911536 1.0094397.0121814 1.4018186z" />
      <path id="Shape" d="m5 25v10h10v-10zm7.707 3.707-4 4c-.39237889.3789722-1.01608478.3735524-1.40181858-.0121814-.38573379-.3857338-.39115363-1.0094397-.01218142-1.4018186l4-4c.3923789-.3789722 1.0160848-.3735524 1.4018186.0121814s.3911536 1.0094397.0121814 1.4018186z" />
      <path id="Rectangle-path" d="m43 25h10.001v10h-10.001z" />
      <path id="Rectangle-path" d="m43 43h10.001v10h-10.001z" />
      <path id="Shape" d="m56 0h-54c-1.1045695 0-2 .8954305-2 2v54c0 1.1045695.8954305 2 2 2h54c1.1045695 0 2-.8954305 2-2v-54c0-1.1045695-.8954305-2-2-2zm-17 11c0 .5522847-.4477153 1-1 1h-7c-.5522847 0-1-.4477153-1-1s.4477153-1 1-1h7c.5522847 0 1 .4477153 1 1zm-15-7h9c.5522847 0 1 .44771525 1 1s-.4477153 1-1 1h-9c-.5522847 0-1-.44771525-1-1s.4477153-1 1-1zm0 6h3c.5522847 0 1 .4477153 1 1s-.4477153 1-1 1h-3c-.5522847 0-1-.4477153-1-1s.4477153-1 1-1zm-7 43c0 1.1045695-.8954305 2-2 2h-10c-1.1045695 0-2-.8954305-2-2v-10c0-1.1045695.8954305-2 2-2h10c1.1045695 0 2 .8954305 2 2zm0-18c0 1.1045695-.8954305 2-2 2h-10c-1.1045695 0-2-.8954305-2-2v-10c0-1.1045695.8954305-2 2-2h10c1.1045695 0 2 .8954305 2 2zm4-16c0 1.1045695-.8954305 2-2 2h-14c-1.1045695 0-2-.8954305-2-2v-14c0-1.1045695.8954305-2 2-2h14c1.1045695 0 2 .8954305 2 2zm15 34c0 1.1045695-.8954305 2-2 2h-10c-1.1045695 0-2-.8954305-2-2v-10c0-1.1045695.8954305-2 2-2h10c1.1045695 0 2 .8954305 2 2zm0-18c0 1.1045695-.8954305 2-2 2h-10c-1.1045695 0-2-.8954305-2-2v-10c0-1.1045695.8954305-2 2-2h10c1.1045695 0 2 .8954305 2 2zm-13-16c0-.5522847.4477153-1 1-1h3c.5522847 0 1 .4477153 1 1s-.4477153 1-1 1h-3c-.5522847 0-1-.4477153-1-1zm15 1h-7c-.5522847 0-1-.4477153-1-1s.4477153-1 1-1h7c.5522847 0 1 .4477153 1 1s-.4477153 1-1 1zm2-4h-16c-.5522847 0-1-.4477153-1-1s.4477153-1 1-1h16c.5522847 0 1 .4477153 1 1s-.4477153 1-1 1zm15 37c0 1.1045695-.8954305 2-2 2h-10c-1.1045695 0-2-.8954305-2-2v-10c0-1.1045695.8954305-2 2-2h10c1.1045695 0 2 .8954305 2 2zm0-18c0 1.1045695-.8954305 2-2 2h-10c-1.1045695 0-2-.8954305-2-2v-10c0-1.1045695.8954305-2 2-2h10c1.1045695 0 2 .8954305 2 2zm-.293-29.707c.2599566.25107447.3642126.62287789.2726972.97250732-.0915155.34962944-.3645604.6226744-.7141899.71418984-.3496294.09151544-.7214328-.01274058-.9725073-.27269716l-.293-.293-.293.293c-.3923789.37897221-1.0160848.37355237-1.4018186-.01218142-.3857338-.3857338-.3911536-1.00943969-.0121814-1.40181858l.293-.293-.293-.293c-.3789722-.39237889-.3735524-1.01608478.0121814-1.40181858.3857338-.38573379 1.0094397-.39115363 1.4018186-.01218142l.293.293.293-.293c.2510745-.25995658.6228779-.3642126.9725073-.27269716.3496295.09151544.6226744.3645604.7141899.71418984.0915154.34962943-.0127406.72143285-.2726972.97250732l-.293.293z" />
    </g>
  </g>
</svg>