<?xml version="1.0" encoding="utf-8"?>
<svg xmlns="http://www.w3.org/2000/svg" height="32px" viewBox="-60 0 466 466.4" width="32px" fill="#7c7979">
  <g>
    <path d="m134.199219 297.492188v28.734374c0 21.539063 17.460937 39 39 39 21.539062 0 39-17.460937 39-39v-30.359374c-2 .820312-3.710938 1.601562-5.597657 2.3125-.382812 10.707031-9.160156 19.195312-19.875 19.21875h-32.671874c-10.976563-.027344-19.855469-8.933594-19.855469-19.90625zm0 0" data-original="#000000" class="active-path" />
    <path d="m251.898438 90.6875c-3.023438.71875-6.09375-.992188-7.074219-3.941406l-.558594-1.675782c-8.46875-19.855468-22.429687-35.175781-40.382813-44.3125-18.777343-9.554687-40.933593-11.402343-62.386718-5.203124-35.796875 10.34375-65.257813 34.210937-80.847656 65.488281-9.191407 18.675781-13.519532 39.363281-12.589844 60.15625 2.035156 49.234375 26.988281 95.292969 65.101562 122.433593-7.527344-5.929687-14.136718-12.9375-19.609375-20.800781-11.332031-16.207031-17.390625-35.511719-17.351562-55.28125v-15.933593c0-4.46875 3.5625-8.125 8.03125-8.238282 5.03125-.480468 81.234375-8.96875 124.085937-87.394531 1.179688-2.1875 3.59375-3.40625 6.054688-3.066406 9.117187 1.308593 17.808594 4.679687 25.425781 9.851562 19.046875 12.664063 30.101563 34.246094 29.753906 57.730469l-.351562 8.769531v37.140625c.128906 20.847656-6.429688 41.191406-18.710938 58.039063-3.257812 4.550781-6.871093 8.835937-10.796875 12.820312.863282-.828125 1.738282-1.675781 2.617188-2.554687 21.21875-21.199219 36.753906-43.320313 46.167968-65.792969 12.613282-30.105469 13.238282-62.34375 1.765626-90.769531-6.511719-16.128906-20.003907-31.816406-38.34375-27.464844zm0 0" data-original="#000000" class="active-path" />
    <path d="m154.078125 273.398438h32.242187c4.351563 0 7.878907 3.527343 7.878907 7.878906v16.242187c0 4.351563-3.527344 7.878907-7.878907 7.878907h-32.242187c-4.351563 0-7.878906-3.527344-7.878906-7.878907v-16.242187c0-4.351563 3.527343-7.878906 7.878906-7.878906zm0 0" data-original="#000000" class="active-path" />
    <path d="m334.691406 152.398438h-19.492187v-10.074219c0-78.480469-63.519531-142.324219-142-142.324219s-142 63.84375-142 142.324219v10.074219h-19.488281c-6.261719 0-11.511719 5.566406-11.511719 11.824218v60.730469c.074219 6.316406 5.195312 11.40625 11.511719 11.445313h31.488281v-94.074219c0-71.863281 58.136719-130.324219 130-130.324219s130 58.464844 130 130.328125v94.070313h31.492187c6.316406-.039063 11.433594-5.128907 11.507813-11.445313v-60.730469c0-6.257812-5.25-11.824218-11.507813-11.824218zm0 0" data-original="#000000" class="active-path" />
    <path d="m257.230469 330.398438h-33.300781c-2.367188 26.410156-24.496094 46.644531-51.011719 46.644531-26.511719 0-48.640625-20.234375-51.007813-46.644531h-32.738281c-38.570313 0-69.972656 31.769531-69.972656 70.339843v65.660157h308v-65.660157c0-38.570312-31.398438-70.339843-69.96875-70.339843zm0 0" data-original="#000000" class="active-path" />
    <path d="m315.199219 249.84375v-12.445312h-12v12.445312c.035156 8.941406-3.515625 17.519531-9.851563 23.828125-6.339844 6.304687-14.9375 9.808594-23.878906 9.726563h-36.675781c1.5-1.257813 2.925781-2.609376 4.261719-4.039063-1.535157 1.507813-3.210938 2.859375-5.011719 4.039063h-22.589844c29.394531-14.347657 47.957031-44.28125 47.746094-76.988282v-37.230468l.355469-8.855469c.28125-19.386719-8.65625-37.164063-24.289063-47.5625-5.023437-3.390625-10.621094-5.839844-16.519531-7.230469-42.328125 73.640625-112.546875 87.285156-128.546875 89.453125v12.566406c-.03125 17.316407 5.277343 34.222657 15.199219 48.414063 7.976562 11.308594 18.535156 20.546875 30.800781 26.945312v-1.289062c0-10.960938 8.894531-20.222656 19.855469-20.222656h32.671874c10.960938 0 19.472657 9.261718 19.472657 20.222656v1.777344h-6v12h69.269531c12.121094.078124 23.773438-4.691407 32.359375-13.246094 8.589844-8.554688 13.402344-20.1875 13.371094-32.308594zm0 0" data-original="#000000" class="active-path" />
  </g>
</svg>