<?xml version="1.0" encoding="utf-8"?>
<svg xmlns="http://www.w3.org/2000/svg" height="24px" viewBox="0 0 447.20007 447" width="24px" fill="#7c7979">
  <g>
    <path d="m350.199219 253.199219c-53.570313 0-97 43.429687-97 97 0 53.574219 43.429687 97 97 97 53.574219 0 97-43.425781 97-97-.050781-53.550781-43.449219-96.949219-97-97zm48.601562 43.402343-38.601562 54.5v.398438h21.402343c5.519532 0 10 4.476562 10 10s-4.480468 10-10 10h-21.402343v3.898438h21.402343c5.519532 0 10 4.480468 10 10 0 5.523437-4.480468 10-10 10h-21.402343v14.300781c0 5.523437-4.476563 10-10 10-5.523438 0-10-4.476563-10-10v-14.300781h-21.398438c-5.523437 0-10-4.476563-10-10 0-5.519532 4.476563-10 10-10h21.398438v-3.898438h-21.398438c-5.523437 0-10-4.476562-10-10s4.476563-10 10-10h21.398438v-.398438l-38.597657-54.5c-3.175781-4.503906-2.101562-10.726562 2.398438-13.902343s10.722656-2.101563 13.898438 2.402343l32.300781 45.597657 32.300781-45.597657c3.175781-4.503906 9.398438-5.578124 13.898438-2.402343 4.503906 3.175781 5.578124 9.398437 2.402343 13.902343zm0 0" data-original="#000000" class="active-path" />
    <path d="m254.5 240.199219c0 7.898437-6.402344 14.300781-14.300781 14.300781-7.898438 0-14.300781-6.402344-14.300781-14.300781 0-7.898438 6.402343-14.300781 14.300781-14.300781 7.898437 0 14.300781 6.402343 14.300781 14.300781zm0 0" data-original="#000000" class="active-path" />
    <path d="m176.601562 162.300781c0 7.898438-6.402343 14.300781-14.300781 14.300781-7.898437 0-14.300781-6.402343-14.300781-14.300781 0-7.898437 6.402344-14.300781 14.300781-14.300781 7.898438 0 14.300781 6.402344 14.300781 14.300781zm0 0" data-original="#000000" class="active-path" />
    <path d="m350.199219 233.199219c10.824219.007812 21.59375 1.523437 32 4.5.199219-.300781.300781-.597657.5-.898438l16.199219-24.601562c4.402343-6.671875 4.402343-15.324219 0-22l-16.199219-24.597657c-4.710938-7.160156-6.988281-15.644531-6.5-24.203124l1.601562-29.699219c.394531-7.945313-3.914062-15.382813-11-19l-26.300781-13.300781c-7.648438-3.84375-13.851562-10.050782-17.699219-17.699219l-13.101562-26.199219c-3.59375-7.105469-11.046875-11.417969-19-11l-29.699219 1.601562c-8.550781.441407-17.019531-1.835937-24.199219-6.5l-24.601562-16.203124c-6.671875-4.398438-15.324219-4.398438-22 0l-24.597657 16.300781c-7.160156 4.710937-15.644531 6.992187-24.203124 6.5l-29.699219-1.597657c-7.957031-.441406-15.417969 3.878907-19 11l-13.300781 26.296876c-3.84375 7.648437-10.050782 13.855468-17.699219 17.703124l-26.300781 13.296876c-7.105469 3.597656-11.417969 11.050781-11 19l1.601562 29.703124c.441406 8.550782-1.832031 17.019532-6.5 24.199219l-16.199219 24.597657c-4.402343 6.675781-4.402343 15.328124 0 22l16.398438 24.402343c4.710937 7.15625 6.992187 15.644531 6.5 24.199219l-1.597657 29.699219c-.394531 7.949219 3.910157 15.386719 11 19l26.296876 13.300781c7.648437 3.847656 13.855468 10.054688 17.703124 17.699219l13.296876 26.300781c3.597656 7.105469 11.046874 11.417969 19 11l29.703124-1.601562c8.550782-.441407 17.019532 1.835937 24.199219 6.5l24.597657 16.203124c6.675781 4.398438 15.328124 4.398438 22 0l24.601562-16.203124c.300781-.199219.601562-.296876.898438-.5-10.070313-35.273438-3.027344-73.226563 19.035156-102.535157 22.058594-29.308593 56.582031-46.582031 93.265625-46.664062zm-187.898438-105.300781c18.941407 0 34.300781 15.359374 34.300781 34.300781 0 18.945312-15.359374 34.300781-34.300781 34.300781-18.945312 0-34.300781-15.355469-34.300781-34.300781.03125-18.929688 15.371094-34.269531 34.300781-34.300781zm-7.902343 134.300781c-1.875 1.890625-4.4375 2.9375-7.097657 2.902343-2.652343-.011718-5.199219-1.050781-7.101562-2.902343-1.871094-1.867188-2.925781-4.402344-2.925781-7.050781 0-2.644532 1.054687-5.179688 2.925781-7.046876l111-111c3.894531-3.894531 10.207031-3.894531 14.101562 0 3.894531 3.890626 3.894531 10.203126 0 14.097657zm51.402343-22c0-18.941407 15.355469-34.300781 34.300781-34.300781 18.941407 0 34.296876 15.359374 34.296876 34.300781 0 18.945312-15.355469 34.300781-34.296876 34.300781-18.933593-.03125-34.269531-15.371094-34.300781-34.300781zm0 0" data-original="#000000" class="active-path" />
  </g>
</svg>