<?xml version="1.0" encoding="utf-8"?>
<svg xmlns="http://www.w3.org/2000/svg" height="24px" viewBox="-30 0 441 441.60015" width="24px" fill="#7c7979">
  <g>
    <path d="m285.304688 118.898438c10.332031-.015626 19.210937-7.328126 21.210937-17.460938 1.996094-10.136719-3.445313-20.273438-13-24.207031-9.554687-3.933594-20.554687-.570313-26.273437 8.035156-5.71875 8.601563-4.5625 20.050781 2.761718 27.335937 4.039063 4.082032 9.558594 6.355469 15.300782 6.296876zm0 0" data-original="#000000" class="active-path" />
    <path d="m170.105469 180.601562c1.96875-1.941406 3.074219-4.589843 3.074219-7.351562s-1.105469-5.410156-3.074219-7.351562c-1.972657-1.941407-4.632813-3.019532-7.402344-3-2.761719 0-5.417969 1.074218-7.398437 3-1.96875 1.941406-3.074219 4.589843-3.074219 7.351562s1.105469 5.410156 3.074219 7.351562c4.101562 4.046876 10.699218 4.046876 14.800781 0zm0 0" data-original="#000000" class="active-path" />
    <path d="m381.003906 202.800781-184.097656 184.097657c-19.585938 19.46875-51.214844 19.46875-70.800781 0l-121.402344-121.5c-7.234375 11.839843-5.414063 27.09375 4.402344 36.902343l130.5 130.5c5.617187 5.632813 13.242187 8.800781 21.199219 8.800781 7.957031 0 15.582031-3.167968 21.199218-8.800781l191-191c6.007813-5.988281 9.203125-14.230469 8.800782-22.699219zm0 0" data-original="#000000" class="active-path" />
    <path d="m140.304688 372.699219c5.617187 5.632812 13.246093 8.800781 21.199218 8.800781 7.957032 0 15.585938-3.167969 21.199219-8.800781l191-191c6.007813-5.984375 9.203125-14.230469 8.800781-22.699219l-6.097656-124.398438c-.730469-15.429687-13.074219-27.773437-28.5-28.5l-124.5-6.101562h-1.5c-7.953125.0234375-15.570312 3.1875-21.203125 8.800781l-191 191c-5.632813 5.617188-8.796875 13.242188-8.796875 21.199219s3.164062 15.582031 8.796875 21.199219zm44-85c-11.875 11.875-31.125 11.875-43 0s-11.875-31.125 0-43 31.125-11.875 43 0c5.710937 5.699219 8.921874 13.433593 8.921874 21.5 0 8.066406-3.210937 15.804687-8.921874 21.5zm71.5-220c16.292968-16.292969 42.707031-16.292969 59 0 16.292968 16.292969 16.292968 42.707031 0 59-16.304688 16.265625-42.695313 16.265625-59 0-16.300782-16.289063-16.300782-42.710938 0-59zm-114.601563 84.101562c11.875-11.871093 31.121094-11.867187 42.992187.003907 11.867188 11.871093 11.867188 31.117187 0 42.988281-11.871093 11.875-31.117187 11.875-42.992187.007812-5.710937-5.695312-8.921875-13.433593-8.921875-21.5 0-8.070312 3.210938-15.804687 8.921875-21.5zm-42.097656 60.597657 130-5.699219c5.519531-.214844 10.171875 4.082031 10.390625 9.601562.222656 5.519531-4.070313 10.175781-9.589844 10.398438l-130 5.699219h-.402344c-5.523437.113281-10.089844-4.277344-10.199218-9.796876-.109376-5.523437 4.277343-10.089843 9.800781-10.203124zm0 0" data-original="#000000" class="active-path" />
    <path d="m162.703125 255.800781c-2.761719-.003906-5.417969 1.074219-7.398437 3-4.058594 4.058594-4.058594 10.640625 0 14.699219 4.058593 4.058594 10.640624 4.058594 14.699218 0s4.058594-10.640625 0-14.699219c-1.921875-1.953125-4.558594-3.039062-7.300781-3zm0 0" data-original="#000000" class="active-path" />
  </g>
</svg>