<?xml version="1.0" encoding="utf-8"?>
<svg xmlns="http://www.w3.org/2000/svg" height="24px" viewBox="0 -5 443.96 443" width="24px" fill="#7c7979">
  <g>
    <path d="m75.960938 280.480469 43.199218-48h-43.199218zm0 0" data-original="#000000" class="active-path" />
    <path d="m147.960938 232.480469v-32l-28.800782 32zm0 0" data-original="#000000" class="active-path" />
    <path d="m291.960938 232.480469h36l-36-32zm0 0" data-original="#000000" class="active-path" />
    <path d="m363.960938 264.480469v-32h-36zm0 0" data-original="#000000" class="active-path" />
    <path d="m115.960938 192.480469h24v-64c0-4.417969 3.582031-8 8-8h32.800781c3.785156-18.644531 20.175781-32.039063 39.199219-32.039063 19.023437 0 35.414062 13.394532 39.199218 32.039063h32.800782c4.417968 0 8 3.582031 8 8v64h32c29.855468-.449219 54.109374-24.242188 55.128906-54.082031 1.019531-29.84375-21.558594-55.238282-51.3125-57.71875-3.511719-.234376-6.460938-2.738282-7.257813-6.167969-10.160156-43.582031-41.609375-74.03125-76.558593-74.03125-23.84375.96875-45.71875 13.484375-58.640626 33.542969-2.210937 3.105468-6.304687 4.222656-9.785156 2.664062-13.789062-6.199219-29.695312-5.519531-42.90625 1.832031-13.210937 7.351563-22.171875 20.511719-24.171875 35.496094-.488281 3.625-3.375 6.460937-7.007812 6.878906-29.328125 3.59375-50.820313 29.351563-49.097657 58.847657 1.71875 29.496093 26.0625 52.582031 55.609376 52.738281zm0 0" data-original="#000000" class="active-path" />
    <path d="m243.960938 128.480469c0 13.253906-10.746094 24-24 24-13.253907 0-24-10.746094-24-24 0-13.253907 10.746093-24 24-24 13.253906 0 24 10.746093 24 24zm0 0" data-original="#000000" class="active-path" />
    <path d="m283.960938 136.480469h-24.800782c-3.785156 18.640625-20.175781 32.039062-39.199218 32.039062-19.023438 0-35.414063-13.398437-39.199219-32.039062h-24.800781v56h128zm0 0" data-original="#000000" class="active-path" />
    <path d="m107.960938 352.480469c0 17.671875-14.328126 32-32 32-17.675782 0-32-14.328125-32-32s14.324218-32 32-32c17.671874 0 32 14.328125 32 32zm0 0" data-original="#000000" class="active-path" />
    <path d="m139.960938 352.480469c.007812-9.664063 4.425781-18.796875 12-24.800781-1.269532-3.882813-2.835938-7.660157-4.679688-11.304688-9.609375 1.082031-19.1875-2.273438-26.027344-9.109375-6.835937-6.835937-10.191406-16.417969-9.109375-26.027344-3.636719-1.847656-7.414062-3.410156-11.296875-4.671875-6.035156 7.554688-15.179687 11.953125-24.847656 11.953125s-18.8125-4.398437-24.847656-11.953125c-3.882813 1.261719-7.660156 2.824219-11.296875 4.671875 1.070312 9.613281-2.292969 19.1875-9.140625 26.015625-6.84375 6.832032-16.425782 10.171875-26.035156 9.082032-1.847657 3.65625-3.414063 7.449218-4.679688 11.34375 7.558594 6.03125 11.960938 15.171874 11.960938 24.839843s-4.402344 18.8125-11.960938 24.839844c1.269531 3.882813 2.835938 7.660156 4.679688 11.304687 9.601562-1.078124 19.171874 2.269532 26.007812 9.097657s10.195312 16.394531 9.128906 26c3.636719 1.847656 7.414063 3.410156 11.296875 4.671875 6.03125-7.558594 15.175781-11.957032 24.84375-11.957032s18.808594 4.398438 24.84375 11.957032c3.882813-1.269532 7.660157-2.832032 11.304688-4.679688-1.082031-9.609375 2.269531-19.191406 9.109375-26.027344 6.835937-6.839843 16.414062-10.191406 26.023437-9.109374 1.851563-3.644532 3.414063-7.421876 4.683594-11.304688-7.570313-6.019531-11.972656-15.164062-11.960937-24.832031zm-64 48c-26.511719 0-48-21.492188-48-48 0-26.511719 21.488281-48 48-48 26.507812 0 48 21.488281 48 48-.027344 26.5-21.503907 47.972656-48 48zm0 0" data-original="#000000" class="active-path" />
    <path d="m363.960938 272.480469c-44.183594 0-80 35.816406-80 80 0 44.183593 35.816406 80 80 80 44.183593 0 80-35.816407 80-80-.050782-44.164063-35.839844-79.953125-80-80zm40 64h-16v-8c0-4.417969-3.582032-8-8-8h-32c-4.417969 0-8 3.582031-8 8v8c0 4.417969 3.582031 8 8 8h32c13.253906 0 24 10.746093 24 24v8c0 13.253906-10.746094 24-24 24h-8v16h-16v-16h-8c-13.253907 0-24-10.746094-24-24v-8h16v8c0 4.417969 3.582031 8 8 8h32c4.417968 0 8-3.582031 8-8v-8c0-4.417969-3.582032-8-8-8h-32c-13.253907 0-24-10.746094-24-24v-8c0-13.253907 10.746093-24 24-24h8v-16h16v16h8c13.253906 0 24 10.746093 24 24zm0 0" data-original="#000000" class="active-path" />
  </g>
</svg>