<?xml version="1.0" encoding="utf-8"?>
<svg xmlns="http://www.w3.org/2000/svg" height="24px" viewBox="-19 -21 600 600" width="24px" fill="#7c7979">
  <g>
    <path d="m477.5 380.667969h17.5v-41.695313c0-4.832031-4.535156-8.304687-9.367188-8.304687h-195.632812v-37.285157l18.355469 18.636719c1.613281 1.640625 3.816406 2.566407 6.117187 2.566407 2.300782 0 4.503906-.925782 6.113282-2.566407 3.398437-3.429687 3.367187-8.972656-.070313-12.371093l-33.503906-33.472657c-3.425781-3.417969-8.972657-3.417969-12.402344 0l-33.476563 33.472657c-2.503906 2.5-3.25 6.265624-1.898437 9.535156 1.351563 3.265625 4.546875 5.402344 8.078125 5.402344 2.410156.007812 4.722656-.910157 6.476562-2.558594l18.710938-18.433594v37.074219h-194.410156c-4.832032 0-9.339844 3.472656-9.339844 8.304687v40.445313h17.5v-31.25h186.25v32.5h17.5v-32.5h187.5zm0 0" data-original="#000000" class="active-path" />
    <path d="m207.953125 129.832031c-.421875 19.09375 6.714844 37.578125 19.863281 51.421875 7.800782 8.222656 12.324219 19.003906 12.730469 30.324219-4.492187.898437-7.597656 5.023437-7.210937 9.589844.378906 4.5625 4.132812 8.113281 8.714843 8.25h78.496094c4.878906-.113281 8.769531-4.109375 8.75-8.988281.007813-4.59375-3.5-8.433594-8.078125-8.832032.320312-11.042968 4.75-21.355468 13.097656-30.089844 12.832032-13.65625 20.003906-31.679687 20.058594-50.417968-.25-40.019532-32.578125-72.429688-72.597656-72.769532-40.019532-.34375-72.902344 31.507813-73.828125 71.519532zm0 0" data-original="#000000" class="active-path" />
    <path d="m257.320312 238.167969c-4.835937 0-8.75 3.917969-8.75 8.75 0 4.828125 3.914063 8.75 8.75 8.75h47.96875c4.832032 0 8.75-3.921875 8.75-8.75 0-4.832031-3.917968-8.75-8.75-8.75zm0 0" data-original="#000000" class="active-path" />
    <path d="m288.75 35.386719v-26.71875c0-4.835938-3.914062-8.7500002-8.75-8.7500002s-8.75 3.9140622-8.75 8.7500002v26.710937c0 4.832032 3.914062 8.75 8.75 8.75s8.75-3.917968 8.75-8.75zm0 0" data-original="#000000" class="active-path" />
    <path d="m351.367188 70.367188 19.625-18.535157c3.457031-3.332031 3.585937-8.824219.292968-12.3125-3.296875-3.488281-8.789062-3.671875-12.308594-.410156l-19.625 18.535156c-3.511718 3.316407-3.671874 8.855469-.351562 12.371094 3.320312 3.507813 8.855469 3.671875 12.367188.351563zm0 0" data-original="#000000" class="active-path" />
    <path d="m203.859375 36.328125c-3.394531-3.441406-8.9375-3.480469-12.378906-.089844-3.441407 3.390625-3.480469 8.933594-.089844 12.375l18.808594 19.082031c3.390625 3.441407 8.933593 3.480469 12.375.085938 3.441406-3.390625 3.480469-8.929688.085937-12.371094zm0 0" data-original="#000000" class="active-path" />
    <path d="m211.25 538.355469 60 19.519531v-89.839844l-60-19.523437zm0 0" data-original="#000000" class="active-path" />
    <path d="m332.035156 436.492188-50.785156-16.375-50.785156 16.375 50.785156 16.378906zm0 0" data-original="#000000" class="active-path" />
    <path d="m351.25 448.511719-62.5 20.332031v89.84375l62.5-20.332031zm0 0" data-original="#000000" class="active-path" />
    <path d="m498.75 558.910156 63.75-20.554687v-89.84375l-63.75 20.554687zm0 0" data-original="#000000" class="active-path" />
    <path d="m481.25 467.808594-60-19.296875v89.84375l60 19.296875zm0 0" data-original="#000000" class="active-path" />
    <path d="m542.738281 436.492188-50.785156-16.375-50.785156 16.375 50.785156 16.378906zm0 0" data-original="#000000" class="active-path" />
    <path d="m61.25 468.265625-61.25-19.753906v89.84375l61.25 19.75zm0 0" data-original="#000000" class="active-path" />
    <path d="m141.25 448.511719-62.5 20.105469v89.839843l62.5-20.101562zm0 0" data-original="#000000" class="active-path" />
    <path d="m70.546875 420.117188-50.785156 16.375 50.785156 16.378906 50.785156-16.378906zm0 0" data-original="#000000" class="active-path" />
  </g>
</svg>