<?xml version="1.0" encoding="utf-8"?>
<svg xmlns="http://www.w3.org/2000/svg" height="24px" viewBox="-29 0 466 466.0008" width="24px" fill="#7c7979">
  <g>
    <path d="m140 322.789062-26.5625-28.753906-39.277344 5.957032c-2.339844.363281-4.699218-.480469-6.277344-2.242188-1.574218-1.75-2.144531-4.179688-1.523437-6.445312l11.585937-42.304688h-15.507812c-34.492188 0-62.4375 26.886719-62.4375 60.179688v97.820312h140zm0 0" data-original="#000000" class="active-path" />
    <path d="m179.160156 279.675781 32.367188 4.941407-9.757813-35.617188h-17.324219l-30.445312 29.417969v23.757812l18.917969-20.359375c1.601562-1.695312 3.933593-2.496094 6.242187-2.140625zm0 0" data-original="#000000" class="active-path" />
    <path d="m220 116.824219c-18 1.511719-41.070312 2.207031-72.828125 2.207031-34.386719 0-59.171875-.8125-77.171875-2.601562v27.976562c0 40.078125 33.511719 72.679688 75 72.679688 41.492188 0 75-32.601563 75-72.679688zm0 0" data-original="#000000" class="active-path" />
    <path d="m147.113281 105.03125c40.332031 0 67.757813-1.179688 86.308594-3.710938 11.8125-1.613281 18.507813-3.59375 22.292969-5.265624l-19.566406-6.367188c-50.066407 5.625-127.960938 5.625-178.035157 0l-19.597656 6.371094c3.789063 1.667968 10.480469 3.648437 22.289063 5.261718 18.550781 2.53125 45.976562 3.710938 86.308593 3.710938zm0 0" data-original="#000000" class="active-path" />
    <path d="m121.195312 281.792969 18.804688 20.382812v-23.738281l-30.476562-29.4375h-17.066407l-9.773437 35.617188 32.355468-4.992188c2.285157-.34375 4.589844.46875 6.15625 2.167969zm0 0" data-original="#000000" class="active-path" />
    <path d="m229.59375 76.414062-.300781-6.785156c-1.625-39.046875-33.847657-69.8125-72.929688-69.628906h-18.460937c-39.089844-.171875-71.308594 30.605469-72.933594 69.65625l-.300781 6.703125c47.570312 4.816406 117.367187 4.875 164.925781.054687zm-109.59375-26.359374c0-14.367188 11.644531-26.011719 26.011719-26.011719 14.363281 0 26.007812 11.644531 26.007812 26.011719 0 14.363281-11.644531 26.007812-26.007812 26.007812-14.359375-.015625-25.996094-11.652344-26.011719-26.007812zm0 0" data-original="#000000" class="active-path" />
    <path d="m335.417969 334.277344 16.582031 5.78125v-24.058594h-38v24.058594l16.628906-5.78125c1.550782-.527344 3.234375-.527344 4.789063 0zm0 0" data-original="#000000" class="active-path" />
    <path d="m258 316v150h150v-150h-42v33.933594c-.042969 2.285156-1.183594 4.410156-3.0625 5.710937-1.226562.839844-2.675781 1.289063-4.164062 1.289063-.789063-.003906-1.574219-.136719-2.320313-.402344l-23.488281-8.230469-23.5 8.234375c-2.15625.746094-4.539063.414063-6.410156-.890625-1.875-1.304687-3.007813-3.425781-3.054688-5.707031v-33.9375zm114.355469 94c3.867187 0 7 3.136719 7 7 0 3.867188-3.132813 7-7 7h-78.730469c-3.863281 0-7-3.132812-7-7 0-3.863281 3.136719-7 7-7zm-27.148438-27c3.867188 0 7 3.136719 7 7 0 3.867188-3.132812 7-7 7h-51.582031c-3.863281 0-7-3.132812-7-7 0-3.863281 3.136719-7 7-7zm0 0" data-original="#000000" class="active-path" />
    <path d="m146.011719 38.042969c-6.632813 0-12.007813 5.378906-12.007813 12.011719 0 6.632812 5.375 12.011718 12.007813 12.011718 6.632812 0 12.011719-5.378906 12.011719-12.011718-.007813-6.628907-5.378907-12.003907-12.011719-12.011719zm0 0" data-original="#000000" class="active-path" />
    <path d="m216.28125 249 11.578125 42.300781c.621094 2.253907.042969 4.671875-1.53125 6.398438-1.578125 1.769531-3.945313 2.621093-6.289063 2.269531l-39.363281-5.945312-26.675781 28.765624v84.210938h90v-97.789062c-.078125-3.882813 2.988281-7.101563 6.871094-7.210938h43.039062c-3.59375-30-30.074218-53-62.121094-53zm0 0" data-original="#000000" class="active-path" />
    <path d="m175 226.160156c-9.691406 3.214844-19.828125 4.878906-30.035156 4.925782-8.78125.015624-17.523438-1.207032-25.964844-3.632813v11.382813l28.117188 26.871093 27.882812-26.855469zm0 0" data-original="#000000" class="active-path" />
  </g>
</svg>