<?xml version="1.0" standalone="no"?>
<!DOCTYPE svg PUBLIC "-//W3C//DTD SVG 20010904//EN"
 "http://www.w3.org/TR/2001/REC-SVG-20010904/DTD/svg10.dtd">
<svg version="1.0" xmlns="http://www.w3.org/2000/svg"
 width="32" height="32" viewBox="0 0 512.000000 515.000000"
 preserveAspectRatio="xMidYMid meet">

<g transform="translate(0.000000,515.000000) scale(0.100000,-0.100000)"
fill="RED" stroke="none">
<path d="M2441 5129 c-108 -21 -162 -59 -359 -252 -105 -103 -202 -189 -221
-197 -31 -12 -61 -10 -305 23 -230 31 -280 35 -331 26 -139 -23 -260 -111
-320 -232 -30 -62 -41 -107 -80 -324 -24 -139 -49 -261 -54 -272 -20 -36 -70
-68 -277 -177 -175 -91 -219 -119 -270 -169 -68 -67 -97 -116 -119 -202 -19
-72 -19 -143 -1 -213 8 -30 63 -154 122 -275 93 -190 108 -227 108 -270 0 -43
-14 -79 -108 -270 -59 -121 -114 -245 -122 -275 -27 -104 -11 -222 43 -323 48
-87 121 -142 348 -261 206 -109 256 -141 275 -177 6 -10 31 -132 56 -271 52
-294 71 -346 158 -434 65 -65 158 -112 246 -124 61 -9 90 -6 429 41 127 17
161 19 194 9 30 -9 82 -53 226 -194 151 -147 200 -189 252 -215 130 -64 268
-64 398 0 52 26 101 68 252 215 146 142 196 185 227 195 34 10 66 8 199 -10
339 -48 361 -50 423 -41 166 24 316 155 359 315 6 22 28 142 50 267 22 125 45
236 50 247 20 36 70 69 277 177 136 72 225 125 258 155 121 111 172 276 132
429 -8 30 -63 154 -122 275 -93 190 -108 227 -108 270 0 43 15 80 108 270 59
121 114 245 122 275 40 153 -11 318 -132 429 -33 30 -122 83 -258 155 -207
108 -257 141 -277 177 -5 11 -28 122 -50 247 -48 276 -58 312 -107 388 -46 71
-95 114 -177 154 -105 52 -163 54 -439 15 -278 -40 -286 -41 -329 -19 -17 9
-112 96 -212 194 -145 142 -193 183 -245 208 -98 48 -188 61 -289 41z m-141
-1688 c146 -56 254 -231 295 -479 25 -148 17 -451 -15 -572 -47 -182 -145
-331 -252 -384 -71 -35 -171 -36 -243 -2 -202 95 -320 442 -286 838 14 157 42
272 91 374 96 200 252 285 410 225z m1843 -10 c178 -86 287 -359 287 -716 0
-212 -26 -344 -95 -493 -32 -66 -59 -107 -97 -145 -69 -69 -115 -90 -206 -95
-66 -4 -79 -1 -137 27 -80 39 -133 99 -186 205 -154 315 -124 878 60 1110 43
53 112 105 163 122 58 19 155 12 211 -15z m-2898 -398 c87 -225 174 -444 192
-488 l32 -80 1 382 0 382 -55 16 -55 16 0 90 0 89 190 0 190 0 0 -90 0 -89
-47 -14 -48 -14 -3 -617 -2 -617 -92 3 -92 3 -191 472 c-105 260 -194 476
-198 480 -4 3 -6 -164 -5 -373 l3 -379 58 -15 57 -14 0 -88 0 -88 -190 0 -190
0 0 88 0 88 48 15 47 14 3 512 2 511 -50 17 -50 17 0 89 0 89 143 0 143 0 159
-407z m1775 317 l0 -89 -41 -11 c-24 -7 -39 -16 -37 -23 3 -7 45 -207 94 -444
49 -238 90 -430 91 -425 2 4 43 202 93 441 94 450 94 450 48 451 -44 0 -48 9
-48 101 l0 89 175 0 175 0 0 -89 0 -90 -42 -8 -42 -9 -135 -622 -135 -622 -97
0 -97 0 -25 108 c-14 59 -78 338 -143 621 -65 282 -123 515 -129 516 -5 2 -22
6 -37 9 l-28 6 0 90 0 90 180 0 180 0 0 -90z"/>
<path d="M2145 3216 c-65 -29 -112 -109 -141 -243 -24 -108 -24 -407 0 -513
37 -170 103 -250 203 -250 47 0 58 4 93 36 88 79 123 216 123 474 0 146 -3
190 -21 264 -39 156 -98 234 -185 242 -23 3 -56 -2 -72 -10z"/>
<path d="M3950 3208 c-34 -18 -51 -36 -76 -81 -56 -103 -69 -184 -68 -417 1
-178 4 -216 23 -285 39 -145 101 -215 190 -215 110 0 182 106 212 311 16 110
6 404 -16 483 -32 115 -80 186 -141 212 -46 19 -73 18 -124 -8z"/>
<path d="M870 25 c0 -21 4 -25 28 -24 23 2 24 2 5 6 -13 2 -23 11 -23 18 0 7
10 16 23 18 19 4 18 4 -5 6 -24 1 -28 -3 -28 -24z"/>
<path d="M1070 26 c0 -2 7 -7 16 -10 8 -3 12 -2 9 4 -6 10 -25 14 -25 6z"/>
<path d="M1122 16 c7 -8 15 -12 17 -11 5 6 -10 25 -20 25 -5 0 -4 -6 3 -14z"/>
<path d="M1180 26 c0 -2 7 -7 16 -10 8 -3 12 -2 9 4 -6 10 -25 14 -25 6z"/>
<path d="M1262 16 c7 -8 15 -12 17 -11 5 6 -10 25 -20 25 -5 0 -4 -6 3 -14z"/>
<path d="M1360 26 c0 -2 7 -7 16 -10 8 -3 12 -2 9 4 -6 10 -25 14 -25 6z"/>
</g>
</svg>
